<?xml version="1.0" encoding="utf-8" standalone="no"?>
<!DOCTYPE svg PUBLIC "-//W3C//DTD SVG 1.1//EN" "http://www.w3.org/Graphics/SVG/1.1/DTD/svg11.dtd">
<svg version="1.1" xmlns="http://www.w3.org/2000/svg" xmlns:xlink="http://www.w3.org/1999/xlink" width="468pt" height="397pt" viewBox="0 0 468 397" xml:space="preserve" enable-background="new 0 0 468 397">
<g transform="scale(0.24,0.24)">
<g>
	<rect x="0" y="0" width="1948.815" height="1653.54" fill="#FFFFFF" fill-opacity="0" />
</g>
<g id="Map_Frame">
<g id="lakes">
<clipPath id="cp_2">
<path d="M1923.9287 1617.6745 L1923.9287 34.468158 L30.74187 34.468158 L30.74187 1617.6745 Z " />
</clipPath>
<g clip-path="url(#cp_2)">
<g transform="matrix(4.1666667 0 0 -4.1666667 977.3353 826.07132)">
<path d="M-180.0191 113.0759 L-179.92711 112.50093 L-180.39284 112.47793 L-180.57683 112.29968 L-180.58258 112.08694 L-180.52508 111.61546 L-180.64008 111.18998 L-181.16906 110.33901 L-181.64629 109.88478 L-182.08328 109.64329 L-182.44551 109.54554 L-183.05499 109.56279 L-183.48622 109.75253 L-184.07845 110.27576 L-184.67643 110.86224 L-184.95817 111.12098 L-185.38365 111.31647 L-185.99313 111.32797 L-186.49911 111.20148 L-187.39607 111.22448 L-190.31696 112.30543 L-191.25418 112.22494 L-191.76016 112.09269 L-192.51338 112.11569 L-193.50234 112.82291 L-194.5373 112.96091 L-195.08353 112.82866 L-196.34848 112.39743 L-197.88886 111.95732 L-193.64071 116.49265 L-191.67966 116.43953 L-190.53545 116.26703 L-189.74773 116.06579 L-188.67827 115.68056 L-187.04534 114.95608 L-185.87238 114.49035 L-183.58397 114.14536 L-181.80154 113.62788 L-180.79532 113.53014 L-180.36984 113.37489 L-180.0191 113.0759 Z "  fill="#73DFFF" fill-rule="evenodd" stroke="#6E6E6E" fill-opacity="1" stroke-opacity="1"  stroke-width="0.7" stroke-linecap="round" stroke-linejoin="round" stroke-miterlimit="10" />
</g>
</g>
<g clip-path="url(#cp_2)">
<g transform="matrix(4.1666667 0 0 -4.1666667 977.3353 826.07132)">
<path d="M118.20476 -8.4974556 L117.52054 -8.7446963 L117.2733 -8.566453 L117.06056 -7.8132318 L117.59529 -7.8132318 L118.17027 -8.2099666 L118.20476 -8.4974556 Z "  fill="#73DFFF" fill-rule="evenodd" stroke="#6E6E6E" fill-opacity="1" stroke-opacity="1"  stroke-width="0.7" stroke-linecap="round" stroke-linejoin="round" stroke-miterlimit="10" />
</g>
</g>
<g clip-path="url(#cp_2)">
<g transform="matrix(4.1666667 0 0 -4.1666667 977.3353 826.07132)">
<path d="M-4.6795455 -13.10303 L-4.2885606 -13.183527 L-3.5295894 -13.09728 L-2.9948599 -13.149028 L-2.4543804 -13.200776 L-1.8794023 -13.143278 L-1.4481688 -13.154778 L-0.89618988 -13.959747 L-0.83294232 -14.321983 L-0.23496505 -14.873962 L1.0069874 -15.483439 L2.0016995 -15.759429 L3.0826582 -15.644433 L4.4166073 -15.678932 L6.2392879 -15.97792 L6.5957743 -16.098666 L6.8717637 -16.426403 L7.1822517 -16.978382 L6.4290305 -16.920884 L5.2215766 -16.351656 L4.5086038 -16.294158 L3.847379 -16.673644 L3.4103957 -16.984132 L2.5364292 -17.323369 L2.1051956 -17.380867 L0.23651687 -17.438365 L-0.30396241 -17.352118 L-1.4884173 -17.357868 L-3.0006097 -17.536111 L-3.8630766 -17.513112 L-4.8290398 -17.340618 L-5.8295017 -17.064629 L-6.5424745 -16.972632 L-8.4744008 -16.633395 L-9.1873736 -16.294158 L-10.032591 -15.655933 L-10.170586 -15.368444 L-10.463825 -14.247236 L-10.705315 -13.87925 L-11.096301 -13.689507 L-11.418288 -13.643509 L-11.838022 -13.310022 L-11.539034 -12.924787 L-10.923807 -12.723544 L-10.561571 -12.482054 L-10.481074 -12.269312 L-10.498323 -11.475842 L-10.728315 -10.785868 L-11.274544 -9.7279087 L-11.291793 -9.0436849 L-10.751314 -8.8079439 L-10.06134 -8.6814488 L-9.4173646 -8.8079439 L-8.2444095 -9.2334276 L-7.4336903 -9.7566577 L-6.9104605 -10.348885 L-6.634471 -10.895114 L-5.9444972 -11.953074 L-5.0015334 -12.913287 L-4.6795455 -13.10303 Z "  fill="#73DFFF" fill-rule="evenodd" stroke="#6E6E6E" fill-opacity="1" stroke-opacity="1"  stroke-width="0.7" stroke-linecap="round" stroke-linejoin="round" stroke-miterlimit="10" />
</g>
</g>
<g clip-path="url(#cp_2)">
<g transform="matrix(4.1666667 0 0 -4.1666667 977.3353 826.07132)">
<path d="M-22.325622 -11.700083 L-21.969136 -11.746082 L-21.06642 -11.590838 L-20.704184 -11.424094 L-20.088958 -11.435594 L-19.743971 -11.878327 L-19.680723 -12.206064 L-19.973962 -12.556801 L-20.888177 -12.965035 L-21.181416 -13.241025 L-21.221664 -13.459516 L-21.049171 -13.712507 L-20.623687 -14.011495 L-20.01996 -14.13799 L-19.479481 -14.14949 L-18.835505 -14.241487 L-17.800545 -14.551975 L-16.909329 -14.724468 L-16.08711 -14.92571 L-15.655877 -14.971709 L-15.960615 -15.500688 L-16.213605 -15.747929 L-16.943828 -16.012419 L-17.66255 -16.173413 L-18.306526 -16.087166 L-19.513979 -15.408692 L-20.048709 -15.247698 L-21.618399 -14.919961 L-22.089881 -14.908461 L-22.739606 -15.109703 L-23.314584 -15.092454 L-24.171302 -14.960209 L-25.01077 -15.333945 L-26.591959 -16.731142 L-29.673842 -17.656856 L-30.50181 -17.777602 L-31.364277 -17.82935 L-32.226744 -17.766102 L-32.617729 -17.54186 L-32.629229 -16.748391 L-32.876469 -16.4954 L-33.175458 -16.915134 L-34.078174 -17.03588 L-34.756648 -17.053129 L-35.550117 -17.179624 L-36.01585 -17.058879 L-36.475832 -16.650645 L-36.608077 -16.213661 L-36.510331 -15.425941 L-36.320588 -15.069455 L-35.808858 -14.655471 L-35.22813 -14.454228 L-34.365663 -14.333483 L-32.744225 -14.339233 L-31.881757 -14.252986 L-31.013541 -13.988496 L-29.311605 -13.603261 L-27.828162 -13.10303 L-26.706955 -12.919037 L-25.804239 -12.83279 L-25.189013 -12.671796 L-24.826777 -12.464804 L-24.274798 -11.935824 L-23.68832 -11.52184 L-23.251337 -11.355097 L-22.929349 -11.435594 L-22.325622 -11.700083 Z "  fill="#73DFFF" fill-rule="evenodd" stroke="#6E6E6E" fill-opacity="1" stroke-opacity="1"  stroke-width="0.7" stroke-linecap="round" stroke-linejoin="round" stroke-miterlimit="10" />
</g>
</g>
<g clip-path="url(#cp_2)">
<g transform="matrix(4.1666667 0 0 -4.1666667 977.3353 826.07132)">
<path d="M121.91912 -17.099127 L121.63163 -17.311869 L121.27515 -17.237122 L120.91291 -16.949633 L120.77492 -16.662144 L120.80942 -16.340156 L120.55642 -15.690431 L120.0217 -14.827964 L119.9182 -14.465728 L119.9527 -14.14374 L120.06194 -13.89075 L120.91866 -14.649721 L121.56264 -15.98367 L121.59714 -16.305658 L121.85013 -16.702393 L121.91912 -17.099127 Z "  fill="#73DFFF" fill-rule="evenodd" stroke="#6E6E6E" fill-opacity="1" stroke-opacity="1"  stroke-width="0.7" stroke-linecap="round" stroke-linejoin="round" stroke-miterlimit="10" />
</g>
</g>
<g clip-path="url(#cp_2)">
<g transform="matrix(4.1666667 0 0 -4.1666667 977.3353 826.07132)">
<path d="M-62.321096 -21.003229 L-62.758079 -21.169972 L-63.149064 -20.980229 L-63.959783 -20.560495 L-62.666082 -20.451249 L-61.843864 -20.543246 L-62.321096 -21.003229 Z "  fill="#73DFFF" fill-rule="evenodd" stroke="#6E6E6E" fill-opacity="1" stroke-opacity="1"  stroke-width="0.7" stroke-linecap="round" stroke-linejoin="round" stroke-miterlimit="10" />
</g>
</g>
<g clip-path="url(#cp_2)">
<g transform="matrix(4.1666667 0 0 -4.1666667 977.3353 826.07132)">
<path d="M71.510797 -30.737607 L71.907532 -30.743357 L72.660753 -30.599612 L74.207444 -30.639861 L75.248154 -31.002097 L75.61039 -31.255087 L75.932378 -31.686321 L75.966877 -32.261299 L75.713886 -32.548788 L75.426397 -32.405043 L75.35165 -32.186552 L75.317151 -31.830065 L75.173407 -31.542576 L74.891668 -31.249337 L74.172945 -30.996347 L72.7355 -31.030846 L71.620043 -31.243588 L70.792074 -31.134342 L69.642118 -30.881351 L68.204673 -30.800855 L67.307707 -30.766356 L66.69823 -30.9101 L65.835763 -31.191839 L65.151539 -31.335584 L64.001583 -31.370083 L63.248362 -31.364333 L63.104618 -31.220588 L63.282861 -31.076844 L64.001583 -31.042345 L64.254574 -31.082594 L64.898549 -30.973348 L65.623021 -30.65136 L66.554486 -30.369621 L67.169713 -30.082132 L67.635445 -30.047633 L68.676155 -30.231626 L69.682366 -30.340872 L70.291843 -30.519115 L71.15431 -30.559364 L71.510797 -30.737607 Z "  fill="#73DFFF" fill-rule="evenodd" stroke="#6E6E6E" fill-opacity="1" stroke-opacity="1"  stroke-width="0.7" stroke-linecap="round" stroke-linejoin="round" stroke-miterlimit="10" />
</g>
</g>
<g clip-path="url(#cp_2)">
<g transform="matrix(4.1666667 0 0 -4.1666667 977.3353 826.07132)">
<path d="M1.0529856 -44.928065 L0.075522958 -45.227054 L0.19626828 -44.80157 L0.63325164 -44.381836 L2.1281946 -43.594116 L3.5828892 -42.944391 L3.8013808 -42.806396 L4.554602 -41.644941 L4.9570868 -41.328703 L6.2335381 -40.60998 L6.7107698 -40.190246 L7.0557566 -39.477273 L7.3374958 -38.229571 L7.6364845 -37.838586 L8.5851983 -37.292357 L8.9819331 -37.263608 L9.5166628 -37.384353 L9.5051632 -37.781088 L9.2464229 -38.206572 L8.5794485 -38.873546 L7.9584721 -39.356528 L7.9469727 -39.753263 L8.119466 -40.046502 L8.2919595 -40.195996 L8.4989516 -40.523733 L7.412243 -40.891719 L7.1190041 -41.207957 L6.1760401 -41.3977 L5.8080543 -41.67369 L5.1410797 -42.628153 L4.474105 -43.260629 L3.0596591 -43.795359 L2.2949383 -44.169094 L1.0529856 -44.928065 Z "  fill="#73DFFF" fill-rule="evenodd" stroke="#6E6E6E" fill-opacity="1" stroke-opacity="1"  stroke-width="0.7" stroke-linecap="round" stroke-linejoin="round" stroke-miterlimit="10" />
</g>
</g>
</g>
<!-- Begin_Label-->
<clipPath id="cp_3">
<path d="M1923.9287 1617.6745 L1923.9287 34.468158 L30.74187 34.468158 L30.74187 1617.6745 Z " />
</clipPath>
<g clip-path="url(#cp_3)">
<g id="EmbdFile__1" transform="matrix(1 0 0 1 30.74187 34.468158)">
<g>
<g transform="scale(1,1)">
</g>
</g>
</g>
</g>
<!-- End_Label-->
<g transform="matrix(4.1666667 0 0 -4.1666667 0 1653.54)">
<path d="M7.3780489 388.57724 L461.74289 388.57724 L461.74289 8.6077237 L7.3780489 8.6077237 L7.3780489 388.57724 Z "  stroke="#000000" fill="none" stroke-opacity="1" stroke-width="1" stroke-linecap="round" stroke-linejoin="miter" stroke-miterlimit="10" />
</g>
</g>
</g>
</svg>
