<?xml version="1.0" encoding="utf-8" standalone="no"?>
<!DOCTYPE svg PUBLIC "-//W3C//DTD SVG 1.1//EN" "http://www.w3.org/Graphics/SVG/1.1/DTD/svg11.dtd">
<svg version="1.1" xmlns="http://www.w3.org/2000/svg" xmlns:xlink="http://www.w3.org/1999/xlink" width="468pt" height="397pt" viewBox="0 0 468 397" xml:space="preserve" enable-background="new 0 0 468 397">
<g transform="scale(0.24,0.24)">
<g>
	<rect x="0" y="0" width="1948.815" height="1653.54" fill="#FFFFFF" fill-opacity="0" />
</g>
<g id="Map_Frame">
<g id="municipalities">
<clipPath id="cp_2">
<path d="M1923.9287 1617.6745 L1923.9287 34.468158 L30.74187 34.468158 L30.74187 1617.6745 Z " />
</clipPath>
<g clip-path="url(#cp_2)">
<g transform="matrix(4.1666667 0 0 -4.1666667 977.3353 826.07132)">
<path d="M152.43896 -84.664798 L152.19747 -84.664798 L151.62249 -84.227817 L151.62824 -83.940326 L152.12847 -83.940326 L152.6287 -84.302563 L152.70345 -84.664798 L152.43896 -84.664798 Z M150.33454 -83.215854 L150.40354 -83.647087 L149.54682 -83.3366 L149.18458 -83.210104 L149.02565 -83.108017 L148.43413 -82.416635 L148.83385 -82.416635 L149.40307 -82.778871 L150.0528 -82.853617 L150.33454 -83.215854 Z M149.19608 -80.6917 L149.30245 -81.269555 L148.97759 -81.186182 L148.55211 -80.6917 L148.55211 -80.329464 L148.8396 -80.260467 L149.19608 -80.6917 Z M164.17605 -55.519056 L164.3492 -55.520786 L164.87245 -55.513032 L164.90448 -55.881397 L165.06548 -56.367253 L164.57675 -56.278131 L164.29501 -56.134387 L163.86377 -56.134387 L163.85802 -56.565621 L163.93277 -56.853109 L163.93277 -57.100352 L164.11101 -57.462587 L163.71428 -57.64083 L163.57053 -57.819073 L163.42679 -58.250306 L162.59882 -59.078276 L162.34583 -59.578506 L162.16184 -59.578506 L161.84272 -59.417515 L161.48336 -59.647503 L161.12113 -59.722251 L160.51165 -59.613004 L160.33341 -59.429012 L160.5519 -58.750538 L160.73014 -58.388301 L160.69564 -58.175561 L160.5174 -57.991566 L160.29891 -57.991566 L160.12066 -58.16981 L159.97692 -58.566545 L159.83318 -58.710289 L159.61468 -58.779288 L159.50544 -59.250768 L159.2927 -59.176021 L158.86146 -58.854034 L158.35548 -58.848284 L158.06799 -58.957531 L157.31477 -58.629792 L156.16482 -58.698789 L155.1931 -58.624042 L154.33064 -58.877033 L153.46817 -59.23352 L152.96794 -59.699253 L152.6057 -59.842997 L152.13997 -60.164984 L151.81223 -60.164984 L151.77773 -59.911993 L151.63399 -59.768249 L151.3465 -59.733751 L150.88077 -59.946492 L150.19654 -60.843458 L150.1218 -61.096449 L150.26554 -61.452934 L150.30004 -62.424648 L150.01255 -63.287113 L150.0068 -63.793095 L150.29429 -64.368073 L150.61628 -64.690062 L151.08201 -64.799308 L151.90998 -65.483532 L152.6287 -65.880266 L153.34742 -65.776769 L153.70391 -65.995261 L154.38813 -66.53574 L154.96311 -66.604739 L156.39481 -66.897978 L157.61951 -67.513204 L158.26349 -68.122681 L158.94196 -68.950647 L160.5174 -70.612335 L161.30512 -71.618546 L161.9146 -72.624758 L162.59307 -74.067953 L163.0588 -75.217908 L163.0588 -76.224121 L163.30604 -76.730102 L163.34054 -77.05209 L162.82881 -78.317041 L163.36354 -79.685489 L163.42679 -80.622704 L163.63953 -81.697912 L162.84606 -82.485631 L162.33433 -84.210565 L162.47232 -84.785544 L163.0473 -85.360522 L163.54754 -85.366273 L163.84671 -85.858373 L162.48253 -86.238948 L162.17909 -85.935501 L160.96013 -86.217239 L160.38516 -86.142494 L158.66022 -85.268527 L157.94725 -85.124783 L157.58501 -85.481267 L157.43552 -85.981498 L157.792 -86.487479 L158.79822 -87.068206 L158.81319 -87.176743 L158.31395 -87.304097 L158.12222 -87.355525 L157.01239 -87.634566 L156.57305 -86.337984 L155.78533 -85.544516 L155.82558 -85.372021 L156.00957 -84.538304 L155.57834 -83.744833 L154.65262 -82.732872 L153.9339 -82.370638 L153.21518 -82.364886 L152.42171 -82.865117 L151.3465 -82.859368 L151.05901 -82.57188 L151.06476 -81.134433 L150.20804 -80.122472 L149.27658 -79.403749 L148.13237 -78.679278 L147.91388 -78.89202 L147.90813 -79.823483 L147.3389 -79.535994 L146.1947 -78.380289 L145.64272 -78.127298 L144.05003 -76.390865 L142.90007 -75.022417 L142.36534 -74.481937 L140.64616 -72.682258 L140.42767 -72.394768 L138.77265 -70.575213 L138.78182 -70.225104 L138.86517 -67.523924 L145.86472 -67.542961 L145.89057 -64.775324 L145.97559 -55.807024 L145.97803 -55.575644 L145.978 -55.30013 L164.17605 -55.519056 Z "  fill="#EFD8FE" fill-rule="evenodd" stroke="#6E6E6E" fill-opacity="1" stroke-opacity="1"  stroke-width="0.7" stroke-linecap="round" stroke-linejoin="round" stroke-miterlimit="10" />
</g>
</g>
<g clip-path="url(#cp_2)">
<g transform="matrix(4.1666667 0 0 -4.1666667 977.3353 826.07132)">
<path d="M136.62742 -135.92692 L136.41739 -145.26381 L135.54752 -145.41293 L135.42614 -146.81345 L134.35016 -146.99674 L134.44688 -149.92674 L136.39239 -149.9574 L136.35515 -154.88801 L134.45531 -155.08925 L134.07973 -157.36977 L132.5821 -156.67076 L132.29857 -156.99686 L131.29137 -158.79742 L132.19367 -159.22663 L129.73136 -158.7854 L129.10791 -159.74281 L128.76922 -159.65502 L128.26121 -160.21768 L127.50614 -161.15539 L127.37577 -161.31375 L127.42687 -162.06861 L125.25027 -161.93257 L125.54571 -163.99354 L125.14275 -165.22341 L125.08735 -166.14456 L125.07876 -169.22428 L127.2152 -169.26016 L127.25778 -173.8324 L130.08017 -173.91601 L109.90345 -182.26691 L21.615194 -101.66907 L21.693194 -100.56603 L23.887819 -100.49084 L23.903225 -100.7666 L23.92371 -101.80318 L24.705666 -101.93394 L24.63832 -102.37408 L25.749758 -102.33884 L25.875264 -102.33488 L26.807284 -102.30535 L26.914122 -102.90205 L29.223189 -102.92977 L29.674569 -97.130824 L29.780805 -97.118905 L31.750129 -97.27141 L31.753655 -97.468999 L31.644605 -98.39634 L33.867702 -98.317677 L33.969751 -101.36273 L34.995458 -101.25309 L35.22766 -103.731 L36.041081 -103.66438 L36.018257 -104.36408 L36.643144 -104.26348 L36.633961 -104.92182 L37.101627 -104.98651 L37.33689 -105.62651 L37.451818 -105.68756 L40.997342 -105.48678 L40.953296 -106.11522 L41.542357 -106.26271 L41.825307 -107.39047 L42.693053 -107.35895 L42.796187 -108.03352 L43.370375 -108.10215 L43.411798 -108.5809 L43.973905 -108.82514 L43.818007 -109.66173 L44.584638 -110.4381 L47.553254 -110.4294 L47.692823 -111.74628 L49.455555 -111.55285 L49.493935 -109.93154 L54.164389 -109.70231 L54.366832 -110.18 L54.370318 -116.6501 L60.293763 -116.99222 L61.013337 -117.00427 L64.53707 -117.0763 L72.117834 -117.2433 L72.129148 -121.1212 L74.903574 -121.28325 L74.882996 -128.1889 L83.119368 -128.29787 L83.253923 -127.8118 L85.824047 -127.91919 L85.946421 -129.43254 L104.13406 -129.56516 L104.15669 -131.71393 L106.61543 -131.75505 L106.61708 -133.80321 L113.54235 -133.72077 L113.64914 -131.69305 L121.11435 -131.58069 L121.3006 -131.57768 L124.62148 -131.52741 L124.69851 -132.51355 L124.71458 -132.69634 L125.01151 -136.32796 L125.28635 -136.31792 L136.62742 -135.92692 Z "  fill="#B2FEB3" fill-rule="evenodd" stroke="#6E6E6E" fill-opacity="1" stroke-opacity="1"  stroke-width="0.7" stroke-linecap="round" stroke-linejoin="round" stroke-miterlimit="10" />
</g>
</g>
<g clip-path="url(#cp_2)">
<g transform="matrix(4.1666667 0 0 -4.1666667 977.3353 826.07132)">
<path d="M201.36959 -139.88569 L203.00828 -142.47884 L203.86208 -143.39153 L202.77801 -143.83985 L200.49562 -141.53588 L199.99539 -141.38638 L199.99539 -141.67387 L202.19971 -144.079 L201.75882 -144.26133 L200.55887 -142.89858 L199.36292 -141.93836 L198.4832 -141.23689 L198.34521 -140.9494 L198.48895 -140.80566 L199.20192 -141.16789 L199.56416 -140.8804 L199.21342 -139.15547 L198.5752 -137.93077 L199.00643 -137.71802 L199.68778 -137.83015 L200.96711 -139.39121 L201.36959 -139.88569 Z M198.07497 -136.56232 L197.78748 -136.99355 L197.57186 -136.83831 L197.21825 -136.12533 L197.14925 -135.55036 L197.43674 -135.41236 L198.01172 -135.91834 L198.07497 -136.56232 Z M195.14258 -134.82588 L195.20583 -135.54461 L194.99308 -135.53886 L194.57623 -134.91501 L194.13637 -133.81392 L194.21111 -133.38269 L194.5676 -133.81392 L195.14258 -134.82588 Z M159.49969 -90.017844 L159.2122 -90.230585 L158.56822 -89.868351 L157.85525 -89.218625 L157.28027 -88.425155 L157.01239 -87.634566 L158.12222 -87.355525 L158.31395 -87.304097 L158.81319 -87.176743 L158.86721 -87.568438 L158.36123 -88.430905 L158.57397 -89.005883 L159.30132 -89.606735 L159.49969 -90.017844 Z M163.97302 -86.516229 L163.76028 -86.734719 L162.75406 -86.510479 L162.48253 -86.238948 L163.84671 -85.858373 L163.97302 -86.516229 Z M148.43413 -82.416635 L149.02565 -83.108017 L148.39686 -82.704125 L148.43413 -82.416635 Z M145.74621 -80.087974 L145.45872 -80.225969 L144.74575 -79.719987 L143.67054 -78.639028 L143.5268 -78.351539 L143.4923 -78.098548 L142.53784 -76.822098 L141.53737 -75.775639 L141.39363 -75.562897 L141.21539 -75.056916 L140.42767 -74.228947 L139.77794 -73.61372 L139.45595 -72.969746 L138.168 -71.739291 L137.98976 -71.308058 L138.1335 -71.095316 L138.45549 -71.095316 L138.77748 -71.348307 L139.85269 -72.751254 L140.10568 -73.222737 L140.78415 -73.832214 L141.32463 -74.372692 L142.00311 -75.562897 L143.86604 -78.1043 L144.17652 -78.639028 L145.10799 -79.438249 L145.74621 -80.087974 Z M-10.511488 -71.569048 L-10.519271 -72.393841 L-12.731677 -70.376244 L-10.499858 -70.408239 L-10.511488 -71.569048 Z M123.09783 -64.47732 L123.09233 -64.823641 L122.9718 -64.537294 L122.8494 -64.228898 L123.09783 -64.47732 Z M142.99027 -41.368705 L157.9649 -41.668661 L158.16712 -41.654101 L159.21808 -41.669262 L159.64135 -41.668762 L160.96071 -41.707618 L161.09238 -41.892182 L161.80823 -42.628154 L161.95484 -42.323415 L162.13309 -42.214169 L162.46083 -42.323415 L163.1393 -42.904142 L163.06455 -43.404373 L163.2428 -43.657364 L163.49579 -44.197843 L164.42725 -45.060311 L164.42725 -45.382298 L164.5365 -45.710035 L164.46175 -45.922778 L164.06501 -45.922778 L163.52454 -46.032023 L163.2773 -46.210266 L163.23705 -46.497755 L163.74303 -46.819743 L164.70899 -47.791456 L165.35297 -48.584927 L165.38746 -48.872416 L165.24372 -49.159904 L165.24372 -49.522139 L165.6347 -49.987872 L167.25039 -50.603099 L168.36585 -50.856088 L168.72234 -51.005584 L169.00983 -51.293073 L169.04433 -51.64956 L168.93508 -51.977297 L168.90058 -52.44303 L168.79133 -52.839763 L168.79133 -53.449241 L168.50385 -54.024219 L168.21636 -54.167963 L167.56663 -54.162214 L166.92265 -53.840226 L166.73866 -53.943721 L166.63517 -54.127714 L166.06019 -54.265709 L165.76695 -54.449702 L165.69795 -54.696942 L165.76695 -55.128175 L165.62321 -55.27192 L165.01373 -55.27192 L164.87245 -55.513032 L164.3492 -55.520786 L164.17605 -55.519056 L145.978 -55.30013 L145.97803 -55.575644 L145.97559 -55.807024 L145.89057 -64.775324 L145.86472 -67.542961 L138.86517 -67.523924 L138.78182 -70.225104 L138.77265 -70.575213 L138.46124 -70.23285 L138.17375 -70.123603 L137.74252 -70.158102 L137.45503 -70.480091 L137.27104 -70.480091 L136.48332 -69.97411 L133.29219 -67.490204 L132.86096 -67.237213 L132.25148 -66.731234 L131.82599 -66.501243 L131.42926 -66.294251 L130.99802 -65.753771 L130.64154 -65.178791 L130.35405 -64.925801 L129.45709 -64.350823 L128.73836 -63.632102 L128.05989 -62.87313 L127.7379 -62.010664 L127.55966 -61.83242 L127.05368 -62.079661 L126.80069 -61.682926 L126.01297 -61.504683 L125.36899 -61.57368 L124.90038 -61.358064 L125.0815 -60.998701 L125.29424 -60.81471 L125.047 -60.314477 L125.047 -59.630254 L124.83426 -59.48651 L124.69052 -59.595756 L124.36278 -60.239732 L124.07529 -60.452473 L123.86255 -60.56172 L123.71306 -60.81471 L123.36027 -60.755505 L122.62279 -60.222255 L119.54386 -60.235932 L119.52889 -60.44288 L119.47634 -61.403077 L119.48433 -69.121481 L123.70216 -69.201809 L123.97425 -69.235553 L123.7973 -67.864293 L123.75178 -67.631094 L123.76133 -67.3429 L123.63333 -66.630936 L123.55413 -66.258365 L123.8108 -66.024011 L125.21375 -66.064258 L125.57023 -65.995261 L126.11071 -65.995261 L126.54195 -66.139006 L126.86394 -66.466744 L126.96743 -66.932476 L126.67994 -67.398207 L126.59801 -67.875441 L126.67994 -68.444667 L127.07093 -68.835654 L127.30667 -68.838527 L127.22042 -68.335423 L127.72065 -67.904189 L128.00814 -67.760445 L128.33013 -67.869689 L128.58312 -68.375669 L128.9396 -68.62866 L129.19259 -69.025395 L129.44559 -69.203638 L130.01481 -69.45663 L130.71629 -70.106354 L131.45226 -70.790578 L132.63671 -71.515052 L133.42443 -72.268271 L133.81542 -72.739754 L134.4249 -74.067953 L134.85613 -74.499187 L135.74534 -74.504799 L135.54267 -74.680399 L135.01155 -74.676216 L134.68149 -74.670062 L134.05889 -74.686601 L133.60652 -74.672708 L133.49066 -75.268814 L133.31414 -75.296289 L133.25638 -75.578842 L133.68761 -75.756793 L133.70018 -75.934641 L133.47197 -76.130949 L133.52824 -76.254939 L133.57346 -76.504099 L131.93377 -76.529594 L131.82587 -76.837163 L131.64831 -76.939728 L131.42779 -76.990041 L131.09761 -76.99152 L131.08979 -77.396075 L131.01792 -78.11699 L129.87866 -78.104421 L129.15027 -78.096364 L128.64017 -78.088154 L128.62366 -78.438917 L128.89444 -79.092456 L126.90981 -79.032263 L127.04156 -81.025618 L127.07133 -81.373699 L127.29203 -83.616069 L130.88521 -83.546754 L130.94616 -83.754327 L130.94518 -90.835204 L131.45846 -90.840849 L139.1426 -90.946771 L141.44722 -90.978501 L141.35872 -98.358826 L145.95882 -98.470902 L145.88236 -102.97158 L147.95721 -102.9595 L150.61798 -102.94569 L150.56731 -99.031465 L150.56263 -98.834212 L150.55847 -98.626418 L150.5401 -97.92435 L150.51499 -97.545663 L150.84008 -97.810486 L150.88642 -97.644765 L150.9175 -96.514925 L151.14791 -96.113324 L151.63399 -96.302355 L153.49692 -98.395276 L154.49738 -99.188744 L156.00382 -99.412986 L156.6478 -99.849969 L156.88354 -101.29892 L156.99853 -102.00614 L157.49877 -102.43737 L157.64251 -102.29938 L157.44127 -101.56915 L157.36077 -101.28741 L157.50451 -100.99993 L157.93575 -101.00568 L159.01671 -101.29892 L164.09951 -104.4153 L164.67449 -104.92128 L165.03098 -105.49625 L165.8187 -106.28973 L166.67541 -106.93945 L167.25039 -107.52018 L168.2451 -109.75109 L168.95808 -110.6883 L169.09607 -111.76927 L169.52156 -112.63173 L169.8033 -113.78169 L170.59101 -114.43716 L171.79847 -116.81182 L172.2987 -117.60529 L173.37391 -118.54251 L174.18463 -119.00824 L174.58053 -119.242 L172.88323 -119.23606 L171.93571 -119.23454 L171.10378 -119.21175 L170.87832 -119.22873 L170.70205 -119.20976 L169.22535 -119.06173 L169.08418 -119.05012 L162.26655 -119.0318 L152.60611 -118.96749 L152.6096 -130.43335 L152.61095 -142.15995 L150.99476 -142.07742 L150.83264 -140.96605 L149.85523 -140.93865 L149.63463 -141.16073 L149.69116 -141.60046 L149.69393 -144.741 L148.72307 -144.72131 L148.67442 -145.06215 L148.57579 -145.72944 L145.71992 -145.57968 L145.75502 -144.72668 L145.48389 -144.49754 L144.64623 -144.35704 L144.56014 -142.45123 L145.72904 -142.30757 L145.53181 -139.02306 L148.27484 -138.9668 L148.35903 -138.61163 L147.29867 -137.61997 L145.37918 -135.82979 L145.11321 -135.57961 L136.62742 -135.92692 L125.28635 -136.31792 L125.01151 -136.32796 L124.71458 -132.69634 L124.69851 -132.51355 L124.62148 -131.52741 L121.3006 -131.57768 L121.11435 -131.58069 L113.64914 -131.69305 L113.54235 -133.72077 L106.61708 -133.80321 L106.61543 -131.75505 L104.15669 -131.71393 L104.13406 -129.56516 L85.946421 -129.43254 L85.824047 -127.91919 L83.253923 -127.8118 L83.119368 -128.29787 L74.882996 -128.1889 L74.903574 -121.28325 L72.129148 -121.1212 L72.117834 -117.2433 L64.53707 -117.0763 L61.013337 -117.00427 L60.293763 -116.99222 L54.370318 -116.6501 L54.366832 -110.18 L54.164389 -109.70231 L49.493935 -109.93154 L49.455555 -111.55285 L47.692823 -111.74628 L47.553254 -110.4294 L44.584638 -110.4381 L43.818007 -109.66173 L43.973905 -108.82514 L43.411798 -108.5809 L43.370375 -108.10215 L42.796187 -108.03352 L42.693053 -107.35895 L41.825307 -107.39047 L41.542357 -106.26271 L40.953296 -106.11522 L40.997342 -105.48678 L37.451818 -105.68756 L37.33689 -105.62651 L37.101627 -104.98651 L36.633961 -104.92182 L36.643144 -104.26348 L36.018257 -104.36408 L36.041081 -103.66438 L35.22766 -103.731 L34.995458 -101.25309 L33.969751 -101.36273 L33.867702 -98.317677 L31.644605 -98.39634 L31.753655 -97.468999 L31.750129 -97.27141 L29.780805 -97.118905 L29.674569 -97.130824 L29.223189 -102.92977 L26.914122 -102.90205 L26.807284 -102.30535 L25.875264 -102.33488 L25.749758 -102.33884 L24.63832 -102.37408 L24.705666 -101.93394 L23.92371 -101.80318 L23.903225 -100.7666 L23.887819 -100.49084 L21.693194 -100.56603 L21.615194 -101.66907 L-7.4875689 -75.158653 L-3.6159513 -75.176981 L-3.5243717 -74.632408 L4.8785758 -74.949163 L4.8266756 -76.477596 L6.0044845 -76.49009 L8.9754147 -76.534311 L12.556327 -76.588524 L13.451225 -76.602968 L13.589694 -77.685415 L19.03537 -77.716375 L19.08964 -79.280238 L18.576608 -79.470327 L18.587201 -81.607001 L18.945417 -81.679969 L18.951874 -82.568041 L18.957695 -83.268152 L18.961253 -84.124218 L18.958743 -84.528853 L18.943933 -85.114231 L19.305518 -85.189801 L19.343191 -86.363449 L19.34933 -86.57834 L19.358375 -86.854007 L20.379467 -86.832361 L20.543945 -88.551239 L22.452941 -88.647202 L23.04389 -88.323918 L23.169996 -88.323175 L24.197512 -88.325792 L25.173282 -88.327635 L25.421788 -88.016664 L26.989357 -87.70983 L27.129751 -86.421749 L28.921278 -86.425513 L28.932471 -83.594267 L27.842392 -83.505241 L27.799036 -82.266323 L26.791768 -82.214879 L26.916332 -80.473315 L29.108351 -80.482792 L29.224199 -76.828344 L26.516312 -76.789767 L26.699041 -74.097767 L27.628015 -73.78179 L28.158192 -73.706236 L28.108636 -74.734788 L32.715172 -74.607628 L32.717485 -74.204909 L33.829446 -74.091429 L33.959786 -73.496167 L35.301249 -73.690162 L35.309669 -74.709942 L35.825345 -74.768308 L35.933708 -75.530575 L37.74818 -75.653728 L38.044671 -76.954967 L38.878613 -76.966571 L39.051259 -72.867319 L38.082336 -73.073113 L37.982224 -72.681754 L37.431415 -72.581378 L37.36666 -72.158546 L36.365706 -72.15927 L36.128655 -72.599618 L35.555639 -72.163594 L34.901015 -71.580016 L34.613585 -71.26401 L34.48232 -71.028187 L34.589493 -70.239213 L35.817761 -70.954218 L35.908789 -70.189626 L37.603745 -70.35715 L37.765252 -70.959051 L38.369866 -71.089578 L38.424118 -71.36139 L39.840104 -71.407919 L39.937089 -72.162342 L40.303365 -72.104132 L40.472006 -72.438257 L40.947534 -72.630234 L40.941863 -73.039937 L41.563822 -73.075389 L41.740332 -73.08486 L41.945437 -73.094724 L42.217627 -72.906058 L42.606516 -72.855165 L42.705959 -73.573812 L44.169477 -73.76464 L44.23033 -74.233431 L44.758447 -74.121134 L44.749415 -74.77947 L45.764516 -74.918041 L45.763765 -76.509522 L45.767531 -77.064149 L49.055812 -77.106424 L49.046011 -77.828037 L49.514825 -77.842073 L49.659126 -78.553629 L52.360143 -78.64129 L52.421913 -79.98844 L55.322118 -79.849032 L55.273218 -79.416866 L55.870501 -79.388416 L55.895683 -78.952127 L57.204667 -78.735623 L57.23462 -77.213908 L56.278299 -77.201149 L54.388787 -77.175856 L54.253523 -72.180006 L52.063559 -72.064872 L52.117101 -69.280895 L49.44418 -69.071472 L49.467963 -65.213735 L47.128497 -65.274578 L47.094657 -60.455202 L48.264306 -60.078634 L48.507649 -60.330628 L49.017434 -60.342678 L49.363358 -60.161987 L49.720113 -60.081169 L49.9426 -60.25999 L50.807484 -60.09591 L51.021341 -60.415889 L51.393094 -60.438177 L51.946768 -60.531323 L52.342198 -60.699677 L52.551521 -60.858485 L52.923759 -60.595644 L53.597319 -60.121416 L54.059711 -59.874479 L54.143995 -59.546382 L54.049294 -59.210766 L54.154305 -59.029342 L54.600748 -58.966935 L55.006785 -58.594568 L55.365752 -58.377549 L55.624678 -57.97124 L55.872561 -57.63574 L56.139717 -57.587532 L56.507258 -57.671078 L56.98568 -57.635914 L57.677883 -57.425233 L58.205276 -57.310795 L58.76174 -57.19098 L59.376357 -57.028458 L59.879498 -56.586358 L60.408326 -56.615741 L60.989545 -56.783891 L61.841016 -56.429471 L62.438357 -56.379175 L63.068645 -56.492317 L63.66501 -56.500158 L64.33163 -56.53576 L64.742884 -56.716314 L65.280627 -57.028291 L65.732742 -57.524531 L66.159933 -57.966737 L66.730792 -58.449807 L67.262168 -58.802581 L67.608568 -59.51221 L68.008628 -59.846641 L68.316615 -59.82635 L68.683492 -59.73842 L69.316374 -59.917315 L69.899538 -60.202951 L70.602887 -60.362914 L71.283932 -60.525131 L71.776116 -60.663165 L72.379998 -60.844181 L73.058148 -61.233264 L73.410726 -61.506282 L73.900448 -61.575851 L74.299657 -61.983705 L74.794543 -62.143462 L75.27173 -62.207734 L75.971545 -62.419312 L76.419208 -62.524742 L77.03918 -62.701399 L77.577889 -62.954363 L78.063392 -63.392031 L78.824953 -63.777571 L79.268779 -63.955789 L79.463321 -64.031764 L79.608493 -63.955608 L79.934815 -63.78393 L80.35202 -63.506639 L80.870058 -63.634629 L81.616063 -63.488035 L81.872217 -58.694833 L85.939491 -58.640848 L86.088042 -59.337578 L89.521555 -59.41205 L91.531712 -57.668563 L93.038968 -59.225719 L95.593141 -57.284059 L96.474378 -57.614373 L97.629629 -57.811172 L98.497086 -58.031951 L99.647379 -58.293819 L100.4954 -58.454859 L101.37464 -58.677617 L102.16535 -59.345498 L102.5762 -59.826006 L102.90869 -60.180918 L103.36251 -60.337823 L103.95816 -60.410746 L106.64624 -60.644554 L107.20127 -61.704588 L110.32672 -61.863322 L110.55256 -61.207524 L110.48653 -53.93522 L113.36464 -54.046676 L118.82454 -54.310175 L119.07905 -54.327142 L119.12902 -53.888545 L119.15927 -53.594833 L119.1638 -53.442529 L119.21345 -53.192083 L119.19385 -52.957892 L119.2006 -52.365382 L119.22052 -51.760875 L119.20802 -51.585577 L119.25919 -50.322356 L118.0826 -50.315953 L118.15516 -45.661733 L119.24177 -45.65944 L119.48304 -41.080651 L136.67015 -41.324991 L142.99027 -41.368705 Z "  fill="#FEDAB3" fill-rule="evenodd" stroke="#6E6E6E" fill-opacity="1" stroke-opacity="1"  stroke-width="0.7" stroke-linecap="round" stroke-linejoin="round" stroke-miterlimit="10" />
</g>
</g>
<g clip-path="url(#cp_2)">
<g transform="matrix(4.1666667 0 0 -4.1666667 977.3353 826.07132)">
<path d="M152.61095 -142.15995 L152.38652 -153.02061 L152.32672 -164.71018 L130.08017 -173.91601 L127.25778 -173.8324 L127.2152 -169.26016 L125.07876 -169.22428 L125.08735 -166.14456 L125.14275 -165.22341 L125.54571 -163.99354 L125.25027 -161.93257 L127.42687 -162.06861 L127.37577 -161.31375 L127.50614 -161.15539 L128.26121 -160.21768 L128.76922 -159.65502 L129.10791 -159.74281 L129.73136 -158.7854 L132.19367 -159.22663 L131.29137 -158.79742 L132.29857 -156.99686 L132.5821 -156.67076 L134.07973 -157.36977 L134.45531 -155.08925 L136.35515 -154.88801 L136.39239 -149.9574 L134.44688 -149.92674 L134.35016 -146.99674 L135.42614 -146.81345 L135.54752 -145.41293 L136.41739 -145.26381 L136.62742 -135.92692 L145.11321 -135.57961 L145.37918 -135.82979 L147.29867 -137.61997 L148.35903 -138.61163 L148.27484 -138.9668 L145.53181 -139.02306 L145.72904 -142.30757 L144.56014 -142.45123 L144.64623 -144.35704 L145.48389 -144.49754 L145.75502 -144.72668 L145.71992 -145.57968 L148.57579 -145.72944 L148.67442 -145.06215 L148.72307 -144.72131 L149.69393 -144.741 L149.69116 -141.60046 L149.63463 -141.16073 L149.85523 -140.93865 L150.83264 -140.96605 L150.99476 -142.07742 L152.61095 -142.15995 Z "  fill="#B5FCFE" fill-rule="evenodd" stroke="#6E6E6E" fill-opacity="1" stroke-opacity="1"  stroke-width="0.7" stroke-linecap="round" stroke-linejoin="round" stroke-miterlimit="10" />
</g>
</g>
<g clip-path="url(#cp_2)">
<g transform="matrix(4.1666667 0 0 -4.1666667 977.3353 826.07132)">
<path d="M151.14791 -96.113324 L150.9175 -96.514925 L150.88642 -97.644765 L150.84008 -97.810486 L150.51499 -97.545663 L150.5401 -97.92435 L150.55847 -98.626418 L150.56263 -98.834212 L150.56731 -99.031465 L150.61798 -102.94569 L147.95721 -102.9595 L145.88236 -102.97158 L145.95882 -98.470902 L141.35872 -98.358826 L141.44722 -90.978501 L139.1426 -90.946771 L131.45846 -90.840849 L130.94518 -90.835204 L130.94616 -83.754327 L130.88521 -83.546754 L127.29203 -83.616069 L127.07133 -81.373699 L127.04156 -81.025618 L126.90981 -79.032263 L128.89444 -79.092456 L128.62366 -78.438917 L128.64017 -78.088154 L129.15027 -78.096364 L129.87866 -78.104421 L131.01792 -78.11699 L131.08979 -77.396075 L131.09761 -76.99152 L131.42779 -76.990041 L131.64831 -76.939728 L131.82587 -76.837163 L131.93377 -76.529594 L133.57346 -76.504099 L133.52824 -76.254939 L133.47197 -76.130949 L133.70018 -75.934641 L133.68761 -75.756793 L133.25638 -75.578842 L133.31414 -75.296289 L133.49066 -75.268814 L133.60652 -74.672708 L134.05889 -74.686601 L134.68149 -74.670062 L135.01155 -74.676216 L135.54267 -74.680399 L135.74534 -74.504799 L135.89684 -74.504935 L136.14983 -74.826925 L136.61556 -74.723429 L136.8283 -74.792425 L136.93755 -74.976419 L136.68456 -75.332905 L136.68456 -75.545647 L136.93755 -75.836011 L136.68456 -76.270118 L136.68456 -76.557608 L136.8628 -76.701351 L137.43778 -76.557608 L138.1565 -76.557608 L139.27771 -78.046802 L138.50149 -78.414788 L138.64523 -78.702277 L139.22021 -78.777022 L139.28921 -79.133511 L139.00172 -79.495746 L138.99597 -79.852232 L140.46792 -81.042438 L140.7899 -81.301177 L141.29014 -81.444921 L141.79611 -81.306928 L142.7264 -80.525034 L143.06032 -80.880636 L142.85982 -83.681586 L142.85407 -85.11903 L143.27956 -86.487479 L144.34902 -87.999672 L144.7055 -88.718395 L144.19377 -89.437117 L144.26852 -89.868351 L144.76875 -90.37433 L145.70022 -90.66757 L146.13145 -91.098804 L146.62018 -92.898485 L147.26415 -93.548211 L147.94838 -94.028317 L148.55211 -94.922407 L149.12708 -95.38814 L149.62732 -95.790624 L150.70253 -95.940118 L151.14791 -96.113324 Z "  fill="#FEB2BA" fill-rule="evenodd" stroke="#6E6E6E" fill-opacity="1" stroke-opacity="1"  stroke-width="0.7" stroke-linecap="round" stroke-linejoin="round" stroke-miterlimit="10" />
</g>
</g>
<g clip-path="url(#cp_2)">
<g transform="matrix(4.1666667 0 0 -4.1666667 977.3353 826.07132)">
<path d="M100.42644 9.0163755 L100.2827 8.9071302 L100.03546 9.0163755 L99.857214 9.3038656 L99.926213 9.4878583 L100.1447 9.4821084 L100.28845 9.3786131 L100.42644 9.0163755 Z M99.351236 9.4878583 L99.385734 9.2693668 L99.034996 9.3584866 L98.38527 9.8500938 L98.310525 10.137582 L98.45427 10.281327 L98.638262 10.315826 L98.882628 10.232454 L99.351236 9.4878583 Z M99.891714 9.970839 L99.678972 9.9190903 L99.535227 10.206579 L99.535227 10.384823 L99.839967 10.439445 L99.891714 9.970839 Z M98.920002 10.632064 L98.529014 10.568817 L98.16678 10.637814 L98.028784 10.781558 L98.172529 10.925302 L98.638262 11.034549 L98.963125 10.997177 L99.069495 10.781558 L98.920002 10.632064 Z M100.43507 10.991425 L100.25395 10.77581 L100.04121 10.885055 L100.00096 11.138045 L100.25395 11.172545 L100.43507 10.991425 Z M105.24476 10.407823 L105.46325 10.261203 L105.53225 10.586067 L105.64149 10.908055 L105.71624 11.373787 L106.25672 11.373787 L106.46946 11.304788 L106.68795 10.867805 L106.82595 9.68335 L106.96969 9.0336254 L107.03869 8.4586473 L106.92945 8.1021607 L106.89495 7.7054253 L106.99844 7.2396946 L107.07032 6.7710862 L107.14219 6.3427276 L107.03294 6.1989836 L106.45796 6.0897362 L105.34251 6.0954883 L104.95152 6.2392333 L102.72636 7.3201899 L102.18588 7.6479288 L101.68565 8.1481594 L101.46715 8.2976534 L100.86343 9.6603511 L100.75418 10.091585 L100.79443 10.379073 L100.95542 10.436572 L101.21991 9.6948489 L101.4384 9.3728621 L101.72589 9.229117 L102.15138 8.9071302 L102.54811 8.6886377 L102.97935 8.6886377 L103.26684 8.8323817 L103.69807 9.4418586 L104.2788 10.085836 L104.63528 10.729812 L104.7474 11.431283 L105.10676 11.0518 L105.24476 10.407823 Z M108.46464 11.727398 L108.30364 11.586528 L108.1254 11.655525 L108.1254 11.983263 L108.44739 11.977513 L108.46464 11.727398 Z M107.22843 11.621026 L107.00994 11.586528 L106.7972 11.695774 L106.68795 12.092508 L106.50971 12.489243 L106.50971 12.776733 L106.7972 12.736484 L107.30318 12.489243 L107.69417 12.379997 L107.74879 12.089632 L107.22843 11.621026 Z M114.7779 13.40346 L115.258 13.006725 L115.03089 14.265924 L114.7089 14.875402 L112.66773 17.687045 L112.48948 18.296522 L112.52398 18.549513 L112.81147 18.762255 L113.02996 18.693258 L113.78318 18.07803 L114.24892 17.359307 L114.74915 16.312848 L116.0716 14.369422 L116.46833 13.863441 L117.11231 13.179216 L118.04377 12.926226 L118.63025 12.661736 L118.83149 12.563992 L119.40647 12.420246 L119.72846 12.167256 L120.37818 12.023511 L121.1314 11.373787 L121.34414 11.299038 L122.13761 11.408285 L123.17832 11.621026 L124.05229 11.615277 L124.25928 11.615277 L125.76573 11.074798 L126.80644 11.253041 L127.38141 11.684274 L127.88739 11.678524 L127.88739 11.212792 L128.16913 10.890804 L128.72686 10.62344 L130.53804 10.022589 L132.15373 9.2981135 L134.02241 8.2516557 L134.23515 8.2114059 L134.2754 8.3954007 L134.02241 8.648391 L134.04254 8.8812569 L134.3099 8.9703789 L134.77563 8.7518853 L135.6381 8.7518853 L136.43157 9.1428706 L137.19054 9.1428706 L138.69123 9.1371217 L139.19721 8.9933766 L139.43655 8.7278827 L139.44445 8.0216642 L139.74002 7.79703 L139.85309 7.4333917 L140.06877 6.9727195 L140.42846 6.485565 L140.77533 6.3258526 L141.21295 6.1408446 L141.66962 5.6815031 L142.0951 5.0662783 L142.60108 4.4568014 L142.59533 4.060065 L142.84832 3.5540834 L143.4578 3.0481039 L143.5374 2.8870567 L125.90252 3.1172487 L125.76366 5.2839833 L125.26756 5.2991473 L125.07171 5.2674698 L119.94794 5.27184 L120.11098 3.2367394 L114.42828 3.1893056 L114.27074 7.8027925 L107.48775 7.8699601 L107.46992 8.0274132 L107.50442 8.4241485 L107.50442 9.0336254 L107.61942 10.614814 L107.61942 10.902304 L107.83791 11.120795 L108.1599 11.120795 L108.37264 10.971301 L108.73488 10.936801 L109.85033 11.184045 L110.09757 11.362287 L110.28157 11.937264 L110.6438 12.730734 L110.82205 12.765233 L110.89104 12.477744 L110.85655 11.684274 L110.92554 10.678062 L110.52881 9.9593401 L110.02283 9.2061182 L109.98833 8.9588789 L110.34481 8.9588789 L110.91979 9.7465986 L111.53502 10.356075 L111.74776 10.281327 L112.21349 9.9593401 L112.59298 9.9392147 L112.43199 10.281327 L111.82251 10.678062 L111.53502 11.074798 L111.57527 11.362287 L111.89725 11.362287 L112.25374 11.253041 L112.47223 11.109296 L112.89772 10.350323 L113.4727 9.5223581 L113.82918 9.5223581 L114.08217 9.3786131 L114.97914 8.6598899 L115.23213 8.6196412 L115.41037 8.7662597 L114.62265 9.5223581 L113.72569 10.528568 L112.61598 12.54674 L111.86851 13.731196 L111.51202 14.702909 L111.09516 15.582624 L110.47131 17.186815 L110.47706 17.761793 L110.83355 17.905537 L110.83355 18.158527 L110.55181 18.911748 L110.73293 19.130239 L111.30503 18.58976 L111.83976 17.687045 L112.55848 16.893575 L112.91497 16.174853 L114.27766 14.37517 L114.52491 13.978436 L114.7779 13.40346 Z M110.37356 20.205449 L110.46269 19.50685 L109.79859 20.067455 L109.4421 20.642433 L108.76363 22.620356 L108.47614 23.304582 L108.58538 23.770314 L108.51638 24.092302 L108.29789 24.420038 L108.11965 24.954767 L107.87241 26.035727 L107.59067 26.972939 L107.59067 27.162684 L107.59067 27.616917 L107.80916 28.048149 L107.82641 28.876117 L108.0219 28.910617 L108.34964 28.588629 L108.77512 26.823446 L109.5226 24.63278 L109.73534 23.730064 L110.02283 23.229833 L110.20107 22.327117 L110.27007 20.964421 L110.37356 20.205449 Z M99.063746 36.448578 L99.167241 35.764353 L99.092494 34.758143 L99.236238 34.108419 L99.339735 33.895676 L99.305236 33.677186 L98.621013 32.383484 L98.224278 31.630262 L98.080534 31.526766 L97.752795 31.595765 L97.574552 31.779757 L97.471057 32.101744 L97.436558 32.389234 L97.649299 32.99871 L97.614802 33.217203 L97.183567 33.539191 L97.045572 34.04517 L96.792582 34.620148 L96.723585 35.195126 L96.32685 35.804603 L95.970364 35.804603 L95.539131 35.235376 L95.251641 35.269875 L94.820408 35.591862 L94.711161 35.919598 L94.716912 36.598073 L95.038899 37.316796 L95.435633 37.822778 L95.441383 38.897986 L95.654124 39.04173 L95.976114 39.076229 L96.194604 39.582211 L96.556841 39.904199 L97.057071 40.151438 L97.563052 40.185936 L98.782005 39.863949 L99.069495 39.679956 L99.103993 39.179724 L99.316736 38.892234 L99.316736 38.639246 L99.247738 38.208011 L99.46048 37.955023 L99.604224 37.702031 L99.782468 36.948809 L99.638723 36.805067 L99.310986 36.695819 L99.063746 36.448578 Z M92.089262 50.012311 L92.485996 49.79957 L92.951728 50.012311 L93.239216 50.04681 L94.170681 49.759321 L94.923903 49.650076 L95.107896 49.466082 L95.498881 48.781858 L95.533381 48.45987 L94.670913 47.815895 L94.274179 47.240917 L94.239681 46.953427 L94.308677 46.596942 L94.665163 46.234706 L94.952653 46.125459 L95.349387 45.728724 L95.958864 44.935254 L96.280852 44.325778 L96.31535 43.963543 L95.918615 43.032078 L95.843869 42.382353 L96.001987 41.701004 L95.55063 41.703879 L95.481632 41.1289 L94.97565 40.697667 L94.757159 40.341181 L94.578916 39.8007 L94.46967 39.150977 L94.325925 38.759989 L93.963691 38.472501 L93.354212 38.219511 L92.991978 38.294257 L92.600992 38.547248 L92.026013 39.122227 L91.451035 39.990444 L91.129047 40.09394 L90.916307 40.059442 L90.712189 39.858198 L90.697813 39.271723 L91.198045 37.581286 L91.192296 37.21905 L90.548322 36.609572 L89.829598 36.649822 L89.553609 36.845314 L89.363865 36.971809 L88.576146 38.662244 L88.397902 39.242972 L88.18516 40.749415 L87.794176 41.468138 L87.288195 42.19261 L87.006454 42.945831 L86.793713 43.842798 L86.396977 44.636266 L86.327981 45.285991 L86.327981 45.860969 L86.62122 46.435947 L86.799465 46.683189 L86.799465 47.045425 L86.511975 47.18917 L86.155488 47.045425 L85.936997 47.120171 L85.936997 47.367413 L86.333733 47.798647 L86.770714 48.948601 L86.948957 50.06406 L86.701717 50.857528 L86.592471 51.214016 L86.810964 51.501503 L86.954708 51.967239 L87.086952 52.099482 L87.242196 52.254726 L87.67343 52.432971 L88.035666 52.432971 L88.610646 52.358222 L89.110875 52.145481 L89.685853 51.564752 L90.082589 51.277263 L90.904807 50.949527 L91.514284 50.662038 L91.732774 50.374548 L92.089262 50.012311 Z M81.935149 55.106617 L81.394669 54.962872 L80.963436 54.968622 L80.819691 55.218736 L81.360171 55.359607 L82.061644 55.322232 L81.935149 55.106617 Z M87.650431 55.382605 L87.035204 55.060618 L86.207235 55.169863 L85.850749 55.422854 L85.597759 55.675845 L85.419515 55.785091 L85.419515 55.963335 L85.56326 56.06683 L86.178488 56.032331 L87.288195 55.813839 L87.610182 55.595349 L87.650431 55.382605 Z M83.119604 69.090084 L82.688371 69.090084 L82.510128 69.268327 L82.579124 69.486817 L82.872362 69.808807 L82.694121 70.274539 L82.728618 70.490154 L82.906862 70.452782 L83.119604 70.021548 L83.119604 69.449444 L83.119604 69.090084 Z M43.14713 81.797099 L44.469578 81.693603 L45.843776 82.01559 L47.373219 82.763061 L48.201188 82.745813 L49.920371 82.481322 L50.558596 82.216831 L51.656804 81.607356 L53.755475 79.399438 L54.324702 79.169449 L55.394161 78.922207 L56.107134 78.686467 L57.314589 78.08274 L60.43097 76.380805 L61.000198 76.150812 L61.46018 76.030069 L61.816668 75.840324 L62.535389 75.823077 L63.731344 75.529836 L64.133827 75.202101 L64.306322 75.317096 L64.812304 75.351595 L65.531027 75.529836 L66.284247 75.777079 L67.146713 76.173813 L68.152926 76.168063 L68.515162 76.099067 L69.302882 75.449341 L69.734115 75.483839 L70.13085 75.731079 L70.383839 75.771328 L72.177772 75.437841 L73.074738 75.18485 L73.574968 74.753617 L74.293691 74.287885 L75.012415 73.994645 L75.334401 73.707157 L75.478145 73.385169 L76.518854 72.913688 L76.731597 72.982685 L76.553354 73.379421 L76.553354 73.59791 L76.737347 73.845153 L77.134082 73.845153 L77.559565 73.735907 L78.134543 73.735907 L78.571529 74.023396 L79.2845 73.839402 L79.502993 73.62666 L79.537491 72.620448 L79.962975 72.183466 L79.893977 71.970722 L79.229877 71.881601 L79.169503 71.039258 L78.778518 70.677022 L78.703772 70.286039 L78.847517 69.923801 L79.094758 69.71106 L79.853728 69.561566 L80.279213 68.952088 L81.032433 68.371361 L81.860401 67.974627 L82.251388 67.865379 L83.976321 67.825132 L84.120065 67.57789 L84.189064 66.893667 L85.408016 65.668964 L85.583385 65.565467 L85.770253 65.737961 L85.735755 67.35365 L84.982532 67.894129 L84.591547 68.36561 L84.373055 68.36561 L84.22931 68.256364 L83.941822 68.36561 L83.941822 68.543853 L84.269559 68.906089 L84.666295 69.084333 L85.632257 69.009587 L85.707005 68.831342 L85.666755 68.164368 L86.207235 68.003376 L86.35098 67.784883 L86.207235 67.428398 L86.023244 66.778672 L86.092242 66.059948 L86.235985 65.484971 L86.736216 63.93828 L87.161699 62.89757 L87.627431 62.029353 L88.311656 61.166885 L88.702641 60.482661 L88.94988 59.76394 L89.024628 59.079716 L88.94988 58.648482 L88.731389 58.251747 L88.265658 58.039006 L87.368691 57.826262 L86.500476 57.435279 L85.965743 57.326033 L84.453554 57.113291 L83.809577 57.153539 L83.487589 57.262784 L83.338095 57.188038 L83.19435 57.084541 L82.872362 57.084541 L82.153642 57.481276 L81.687909 57.406529 L80.790942 57.050042 L80.175717 56.659059 L79.853728 56.273823 L79.635236 56.015084 L78.956763 55.836838 L78.163293 55.474603 L77.588315 54.865126 L77.116832 54.72713 L76.973087 54.583386 L76.651099 53.611674 L76.576354 53.036696 L76.645352 51.742994 L76.823594 51.093271 L77.145582 50.409046 L77.755059 49.690324 L79.296 48.356375 L80.440206 47.528406 L81.049683 46.987925 L81.515415 46.338202 L82.090393 45.83222 L82.343384 45.83222 L82.504378 46.157084 L83.021857 45.510234 L83.45309 45.182496 L83.993571 45.395237 L84.78704 46.223206 L85.109028 46.366949 L85.321769 45.935718 L85.252772 45.57348 L85.212524 44.998502 L85.390765 44.27978 L85.321769 43.883045 L85.068778 43.561057 L85.068778 43.239069 L85.712756 42.123611 L86.138238 41.548633 L86.207235 40.973655 L86.385479 40.392929 L87.029454 39.31772 L87.247946 38.77724 L87.316944 38.093016 L87.460688 37.339795 L87.886172 36.43708 L88.277156 35.287122 L88.208159 35.034132 L88.167913 34.6029 L88.564646 33.993422 L88.599146 32.843466 L88.466901 32.590476 L88.932632 32.590476 L90.082589 32.941213 L90.29533 32.366234 L89.887096 32.297238 L89.634105 32.118995 L89.654229 31.886129 L89.921594 31.72226 L90.140086 31.509519 L90.318329 31.003537 L90.462074 30.859793 L90.81856 30.750546 L90.962304 30.284815 L91.100299 29.3476 L91.284291 29.060112 L91.497035 29.060112 L91.640778 29.203855 L91.640778 29.813332 L91.502784 30.319313 L91.502784 30.859793 L91.824772 30.963288 L92.089262 30.670048 L92.543495 29.560341 L93.331215 28.732374 L93.037975 28.157395 L93.325465 27.726162 L93.414586 27.240306 L95.23094 27.474238 L96.298101 24.287793 L96.436096 23.425327 L94.578916 22.700854 L94.532917 22.51111 L94.389174 22.005129 L94.067186 21.72339 L93.814194 21.435902 L93.773948 20.42969 L93.664702 19.670719 L93.733699 18.951996 L94.090184 18.124027 L94.130434 17.733044 L94.055687 17.51455 L94.044188 17.278811 L94.015438 16.76133 L94.302926 16.436467 L94.159181 16.186352 L94.159181 15.864365 L93.940693 15.645873 L93.906191 15.323886 L93.97519 14.961647 L94.297178 14.421169 L95.337889 13.558704 L96.056609 12.696237 L96.556841 12.081008 L96.735085 11.759021 L96.962201 10.931054 L97.269815 9.9938389 L97.448058 9.9593401 L97.591802 9.6344768 L97.517053 9.2751157 L97.660798 8.8438806 L97.695297 8.4126486 L97.867792 7.9210413 L98.448518 7.4064374 L98.770506 7.009701 L98.805005 6.722213 L98.948749 6.5382213 L99.345485 6.5410947 L99.310986 6.9694544 L99.132743 7.4006874 L98.681385 7.906668 L98.16103 8.2344058 L98.092033 8.7001387 L98.16678 9.0221254 L98.345023 9.2003693 L98.563514 9.1658705 L99.078119 8.6483889 L99.995211 8.5851424 L100.53569 8.1194106 L100.96692 7.9354178 L101.6109 7.3949375 L102.65161 6.8199593 L105.34251 5.5205102 L105.88298 5.4457616 L106.42346 5.6240044 L106.77995 5.6585032 L108.10815 5.3307675 L108.50869 5.3628106 L109.04757 4.8176676 L109.57905 4.2776353 L109.58093 1.1496793 L109.55393 -1.5445119 L109.58937 -4.6747731 L109.50496 -7.5050886 L104.10727 -7.4508833 L103.93444 -7.4328437 L101.91089 -7.432334 L96.920979 -7.4064001 L96.825821 -8.0026443 L96.821091 -8.3925423 L96.809996 -8.7535944 L96.782092 -10.794126 L96.727464 -12.927026 L94.456688 -12.953095 L94.373583 -15.291169 L91.049845 -15.245318 L90.876635 -12.914318 L89.049713 -12.789482 L89.091817 -10.947298 L89.034574 -10.620879 L89.092928 -10.314751 L91.187063 -10.338037 L91.21898 -8.767738 L91.252247 -7.1220195 L91.23468 -6.9808439 L91.290309 -5.0525226 L91.292323 -4.8888934 L91.404091 1.3279471 L94.954069 1.3112978 L94.82843 1.6398189 L94.617683 2.093398 L94.559002 2.2699153 L94.172675 3.6497115 L93.433707 5.657443 L92.172679 6.820093 L92.017547 6.9632803 L91.878632 7.0947598 L91.698174 7.2590366 L91.389169 7.6467245 L91.067826 7.5432846 L77.214442 7.8953926 L76.593258 7.8688038 L76.140718 7.7774185 L75.341126 7.5779745 L74.545477 7.1636999 L73.603185 6.3415504 L73.855603 8.5163412 L72.183551 8.6791797 L72.240051 9.0588239 L73.914618 9.1254578 L73.989104 10.187628 L73.621734 10.226238 L73.145488 10.27904 L72.627716 10.331748 L72.195308 10.303449 L71.873371 10.416927 L71.656155 10.681204 L71.257418 10.791208 L70.826432 10.872228 L70.615758 10.928659 L70.973974 11.155437 L71.196062 11.235666 L71.546912 11.153131 L71.903763 11.048147 L72.333808 10.894277 L72.57639 10.840001 L72.833114 11.62173 L72.912873 11.870661 L73.292843 13.022867 L72.186962 13.131113 L71.966623 13.1525 L71.777714 13.171885 L71.586161 13.181394 L71.58485 13.825491 L71.587635 14.17035 L71.620058 14.941868 L71.605589 15.07151 L71.593321 17.687946 L69.553129 17.785381 L69.37249 17.793485 L69.134028 17.805539 L69.133337 18.106652 L69.128401 18.339417 L69.103799 19.895763 L67.873089 19.962959 L67.688579 19.973467 L62.82507 20.244102 L62.866178 22.634293 L57.695202 22.770425 L57.522905 24.96487 L55.452219 25.097513 L54.436766 26.435816 L54.548943 31.891971 L54.213868 31.943163 L54.252637 33.634857 L54.268956 34.129454 L55.104226 34.184034 L55.197514 35.166016 L56.506101 35.230881 L56.530623 36.089127 L56.588974 36.267665 L56.719508 36.35957 L57.013978 36.377993 L57.674249 36.357954 L58.398769 36.378622 L60.071644 36.422143 L60.190705 36.959482 L60.69056 37.04297 L60.753699 37.693571 L60.997093 37.717186 L61.172704 37.954268 L62.701808 37.98737 L63.629072 38.003875 L63.868889 38.010937 L64.404295 38.345256 L64.610546 38.476789 L65.042856 38.780511 L64.565071 39.160153 L64.236625 39.454722 L63.946473 39.760936 L63.35239 40.78782 L62.892035 41.499051 L62.352157 42.279108 L62.128348 42.750039 L61.878996 43.22195 L61.179174 43.250422 L60.870523 43.83053 L60.355554 44.051548 L60.158883 44.401946 L59.697294 44.335858 L59.368203 44.323627 L59.16529 43.970248 L58.911883 44.166062 L59.035038 44.539684 L58.865827 44.764419 L58.435016 45.072567 L57.887303 45.223741 L57.123183 45.453267 L56.571596 45.814205 L56.141671 46.154339 L55.502257 46.618765 L55.090084 46.875566 L54.672136 47.200854 L54.063371 47.542792 L53.71876 47.372284 L53.537124 48.099068 L52.648258 48.11303 L52.596478 48.743443 L52.294571 49.58886 L52.289406 49.918169 L52.288714 50.114125 L52.160583 50.442867 L49.446295 50.490713 L49.278627 50.851652 L49.188175 51.038287 L48.955571 51.092612 L48.798247 50.555833 L46.904224 50.647661 L46.718459 52.706215 L46.495957 52.701924 L46.292471 52.729978 L43.920552 52.737468 L42.982886 52.757814 L41.110284 52.783845 L41.101189 56.490673 L41.181648 64.217829 L41.177055 64.459231 L41.195441 64.847036 L41.221792 65.250393 L40.033242 65.375342 L40.053777 66.155652 L40.008745 66.813491 L39.852925 69.160659 L39.345377 69.184382 L38.205039 69.198449 L37.064967 69.201684 L37.043886 69.860791 L37.089227 73.186814 L37.591085 73.159936 L38.219405 73.164962 L41.606804 73.064742 L41.520524 74.203598 L41.598236 75.664937 L41.614275 76.470565 L41.595456 76.712167 L41.590904 77.662247 L40.416225 77.683112 L40.226026 77.776232 L40.209304 79.11039 L40.238771 80.080454 L40.231635 80.70772 L40.208148 81.093552 L40.223805 81.524869 L40.204673 81.862695 L40.164535 83.437142 L40.657474 82.941304 L42.215664 82.038589 L43.14713 81.797099 Z M92.821679 16.154497 L93.915601 16.102093 L93.784332 16.88937 L93.711439 17.477757 L93.65749 17.780796 L93.583091 17.954952 L93.508922 18.438513 L93.33023 19.255142 L93.389879 19.708298 L93.385533 20.516716 L93.430148 20.752703 L93.460109 21.383941 L93.07421 21.594841 L92.946125 20.553751 L92.840473 17.958944 L92.823465 17.32499 L92.766956 17.162669 L92.730521 16.927542 L92.790349 16.471963 L92.821679 16.154497 Z "  fill="#BAB3FD" fill-rule="evenodd" stroke="#6E6E6E" fill-opacity="1" stroke-opacity="1"  stroke-width="0.7" stroke-linecap="round" stroke-linejoin="round" stroke-miterlimit="10" />
</g>
</g>
<g clip-path="url(#cp_2)">
<g transform="matrix(4.1666667 0 0 -4.1666667 977.3353 826.07132)">
<path d="M111.13909 0.81818961 L111.19741 0.60271461 L111.49573 -0.15190695 L111.61514 -0.34572008 L111.88756 -0.5879844 L112.40255 -0.8989162 L112.82602 -1.1058524 L113.29553 -1.1797142 L113.49676 -1.2306346 L113.66817 -1.3572801 L113.8732 -1.6230373 L113.94416 -1.8360954 L113.86505 -2.3254945 L113.73276 -2.9504383 L113.6516 -3.4714555 L112.98365 -3.5001343 L112.92373 -4.2502531 L113.2084 -4.6876236 L109.58937 -4.6747731 L109.55393 -1.5445119 L109.58093 1.1496793 L109.57905 4.2776353 L109.93089 3.7294914 L110.37188 2.8389377 L111.02262 1.2632017 L111.13909 0.81818961 Z "  fill="#E6FED1" fill-rule="evenodd" stroke="#6E6E6E" fill-opacity="1" stroke-opacity="1"  stroke-width="0.7" stroke-linecap="round" stroke-linejoin="round" stroke-miterlimit="10" />
</g>
</g>
<g clip-path="url(#cp_2)">
<g transform="matrix(4.1666667 0 0 -4.1666667 977.3353 826.07132)">
<path d="M114.42828 3.1893056 L114.23904 0.94320261 L111.13909 0.81818961 L111.02262 1.2632017 L110.37188 2.8389377 L109.93089 3.7294914 L109.57905 4.2776353 L109.04757 4.8176676 L108.50869 5.3628106 L107.94374 6.584219 L107.53892 7.4179363 L107.48775 7.8699601 L114.27074 7.8027925 L114.42828 3.1893056 Z "  fill="#F8B6FD" fill-rule="evenodd" stroke="#6E6E6E" fill-opacity="1" stroke-opacity="1"  stroke-width="0.7" stroke-linecap="round" stroke-linejoin="round" stroke-miterlimit="10" />
</g>
</g>
<g clip-path="url(#cp_2)">
<g transform="matrix(4.1666667 0 0 -4.1666667 977.3353 826.07132)">
<path d="M114.23904 0.94320261 L114.42828 3.1893056 L120.11098 3.2367394 L120.18906 2.2843701 L120.18863 1.6943366 L120.16521 1.3334203 L120.1567 1.1385418 L120.1187 0.60263419 L120.17299 -0.67011652 L120.18058 -0.99814468 L120.18808 -1.4444342 L114.46854 -1.3397117 L114.23904 0.94320261 Z "  fill="#B2DBFD" fill-rule="evenodd" stroke="#6E6E6E" fill-opacity="1" stroke-opacity="1"  stroke-width="0.7" stroke-linecap="round" stroke-linejoin="round" stroke-miterlimit="10" />
</g>
</g>
<g clip-path="url(#cp_2)">
<g transform="matrix(4.1666667 0 0 -4.1666667 977.3353 826.07132)">
<path d="M93.784332 16.88937 L93.915601 16.102093 L92.821679 16.154497 L92.790349 16.471963 L92.730521 16.927542 L92.766956 17.162669 L92.823465 17.32499 L92.840473 17.958944 L92.946125 20.553751 L93.07421 21.594841 L93.460109 21.383941 L93.430148 20.752703 L93.385533 20.516716 L93.389879 19.708298 L93.33023 19.255142 L93.508922 18.438513 L93.583091 17.954952 L93.65749 17.780796 L93.711439 17.477757 L93.784332 16.88937 Z "  fill="#B4FDDC" fill-rule="evenodd" stroke="#6E6E6E" fill-opacity="1" stroke-opacity="1"  stroke-width="0.7" stroke-linecap="round" stroke-linejoin="round" stroke-miterlimit="10" />
</g>
</g>
<g clip-path="url(#cp_2)">
<g transform="matrix(4.1666667 0 0 -4.1666667 977.3353 826.07132)">
<path d="M140.1948 7.164946 L141.21295 6.1408446 L140.77533 6.3258526 L140.42846 6.485565 L140.06877 6.9727195 L139.85309 7.4333917 L139.74002 7.79703 L139.87569 7.6939264 L140.1948 7.164946 Z M9.384168 85.404894 L9.1046516 85.105651 L9.0273649 85.477829 L9.4875568 85.507617 L9.384168 85.404894 Z M-204.44044 104.96173 L-204.4655 104.34568 L-204.76331 104.61688 L-204.44044 104.96173 Z M-174.04679 101.24511 L-174.20895 94.667296 L-169.71247 94.574222 L-169.71927 91.13992 L-158.41033 90.918293 L-158.39933 90.366877 L-158.3937 90.169178 L-158.30086 86.240541 L-158.32647 85.286067 L-158.38015 83.731735 L-159.36824 83.683989 L-159.42534 80.869727 L-155.76204 80.847413 L-151.0656 78.499047 L-145.77783 75.97405 L-145.75291 77.22938 L-144.77141 76.809634 L-143.67161 76.209819 L-143.18659 75.200174 L-142.94464 73.861562 L-131.99745 73.966852 L-123.25951 73.976176 L-123.27024 76.915731 L-121.01327 76.850231 L-119.42907 76.832209 L-119.18724 76.800755 L-118.54863 76.784145 L-115.39255 76.694949 L-115.26523 76.763518 L-114.9533 76.697098 L-112.0416 76.536549 L-111.93036 74.378407 L-111.44826 74.364243 L-98.788522 73.99302 L-98.667565 72.758696 L-94.107129 72.680409 L-93.862671 72.675956 L-89.535436 72.600018 L-77.515134 72.204559 L-77.298849 72.209258 L-72.662833 72.060477 L-72.74961 69.476375 L-69.742143 69.353441 L-69.859164 65.213641 L-69.861728 65.066631 L-69.873561 64.74843 L-67.697523 64.764255 L-67.685871 60.830021 L-64.844923 60.646533 L-64.841285 58.360096 L-64.839698 57.797428 L-64.073027 57.777157 L-63.827245 57.770362 L-58.543493 57.628531 L-58.291009 57.621662 L-56.773584 57.58109 L-56.722504 59.843557 L-59.027464 59.97303 L-58.886064 64.495383 L-61.177834 64.641421 L-61.251011 66.891963 L-64.626515 67.008292 L-64.532816 69.280263 L-39.078219 68.984296 L-39.075537 72.247509 L-36.786177 72.190688 L-36.57322 78.562175 L-40.591173 78.735754 L-40.631567 83.431848 L-37.066503 83.319389 L-37.155643 84.13539 L-37.091948 84.292902 L-37.034751 85.660181 L-34.721897 85.71754 L-33.702271 85.596029 L-33.702992 83.961856 L-33.574924 82.242467 L-30.042354 82.080184 L-30.160464 76.960272 L-27.872255 76.828022 L-27.976047 72.18356 L-30.842986 72.279156 L-30.958012 69.937171 L-30.96817 69.69822 L-31.07387 67.492906 L-25.248836 67.369544 L-25.048522 73.28091 L-21.055829 73.265727 L-21.142468 68.004038 L-18.218429 67.867511 L-18.256409 66.684053 L-18.352363 63.84754 L-16.079537 63.714495 L-16.075722 60.89751 L-13.16998 60.780937 L-13.227574 55.655004 L-11.029685 55.594476 L-11.172078 52.208863 L-2.9272293 51.905672 L-2.5907981 52.973953 L-2.3054618 53.46954 L6.9654981 53.394894 L10.6067 53.220902 L10.732585 59.95749 L13.001854 59.789514 L13.240872 64.500335 L8.6835784 64.82393 L8.7565639 69.281496 L7.5181782 69.34864 L7.6113455 71.093245 L6.3603548 71.180445 L6.7547766 77.225116 L9.947149 77.131248 L16.252261 76.950131 L16.5297 76.943487 L17.015029 76.926115 L17.039299 77.594169 L17.086763 78.103332 L17.111473 79.783111 L17.106764 80.117547 L17.091256 81.737822 L17.096895 82.490863 L17.108448 83.702851 L17.076034 85.624073 L16.221824 85.279058 L15.545235 85.088931 L13.030914 85.006597 L13.034717 86.10874 L12.415273 86.103236 L12.115625 86.158838 L11.886697 86.214029 L11.571388 86.257721 L11.484853 86.039081 L11.131108 86.059056 L10.943267 86.203466 L10.746493 86.323406 L11.287596 86.488919 L12.006318 86.506168 L13.334517 86.575167 L15.824172 86.799408 L18.066587 87.316887 L18.566818 87.339888 L19.860519 87.408884 L20.688486 87.316887 L21.579702 87.150143 L23.080395 86.71316 L25.340058 86.655663 L26.237026 86.454422 L26.559012 86.537791 L26.817753 86.690161 L27.185737 87.144394 L27.62847 87.564128 L29.22116 87.955114 L29.76164 88.012611 L30.187125 87.857367 L30.894348 87.334138 L31.423327 87.03515 L31.84306 86.661413 L32.331792 86.074935 L32.826272 85.591953 L33.602494 85.212469 L34.246468 85.016975 L34.890444 84.930729 L37.046613 84.942227 L38.121821 84.769735 L38.725548 84.614492 L39.432772 84.160259 L39.680011 83.924516 L40.164535 83.437142 L40.204673 81.862695 L40.223805 81.524869 L40.208148 81.093552 L40.231635 80.70772 L40.238771 80.080454 L40.209304 79.11039 L40.226026 77.776232 L40.416225 77.683112 L41.590904 77.662247 L41.595456 76.712167 L41.614275 76.470565 L41.598236 75.664937 L41.520524 74.203598 L41.606804 73.064742 L38.219405 73.164962 L37.591085 73.159936 L37.089227 73.186814 L37.043886 69.860791 L37.064967 69.201684 L38.205039 69.198449 L39.345377 69.184382 L39.852925 69.160659 L40.008745 66.813491 L40.053777 66.155652 L40.033242 65.375342 L41.221792 65.250393 L41.195441 64.847036 L41.177055 64.459231 L41.181648 64.217829 L41.101189 56.490673 L41.110284 52.783845 L42.982886 52.757814 L43.920552 52.737468 L46.292471 52.729978 L46.495957 52.701924 L46.718459 52.706215 L46.904224 50.647661 L48.798247 50.555833 L48.955571 51.092612 L49.188175 51.038287 L49.278627 50.851652 L49.446295 50.490713 L52.160583 50.442867 L52.288714 50.114125 L52.289406 49.918169 L52.294571 49.58886 L52.596478 48.743443 L52.648258 48.11303 L53.537124 48.099068 L53.71876 47.372284 L54.063371 47.542792 L54.672136 47.200854 L55.090084 46.875566 L55.502257 46.618765 L56.141671 46.154339 L56.571596 45.814205 L57.123183 45.453267 L57.887303 45.223741 L58.435016 45.072567 L58.865827 44.764419 L59.035038 44.539684 L58.911883 44.166062 L59.16529 43.970248 L59.368203 44.323627 L59.697294 44.335858 L60.158883 44.401946 L60.355554 44.051548 L60.870523 43.83053 L61.179174 43.250422 L61.878996 43.22195 L62.128348 42.750039 L62.352157 42.279108 L62.892035 41.499051 L63.35239 40.78782 L63.946473 39.760936 L64.236625 39.454722 L64.565071 39.160153 L65.042856 38.780511 L64.610546 38.476789 L64.404295 38.345256 L63.868889 38.010937 L63.629072 38.003875 L62.701808 37.98737 L61.172704 37.954268 L60.997093 37.717186 L60.753699 37.693571 L60.69056 37.04297 L60.190705 36.959482 L60.071644 36.422143 L58.398769 36.378622 L57.674249 36.357954 L57.013978 36.377993 L56.719508 36.35957 L56.588974 36.267665 L56.530623 36.089127 L56.506101 35.230881 L55.197514 35.166016 L55.104226 34.184034 L54.268956 34.129454 L54.252637 33.634857 L54.213868 31.943163 L54.548943 31.891971 L54.436766 26.435816 L55.452219 25.097513 L57.522905 24.96487 L57.695202 22.770425 L62.866178 22.634293 L62.82507 20.244102 L67.688579 19.973467 L67.873089 19.962959 L69.103799 19.895763 L69.128401 18.339417 L69.133337 18.106652 L69.134028 17.805539 L69.37249 17.793485 L69.553129 17.785381 L71.593321 17.687946 L71.605589 15.07151 L71.620058 14.941868 L71.587635 14.17035 L71.58485 13.825491 L71.586161 13.181394 L71.777714 13.171885 L71.966623 13.1525 L72.186962 13.131113 L73.292843 13.022867 L72.912873 11.870661 L72.833114 11.62173 L72.57639 10.840001 L72.333808 10.894277 L71.903763 11.048147 L71.546912 11.153131 L71.196062 11.235666 L70.973974 11.155437 L70.615758 10.928659 L70.826432 10.872228 L71.257418 10.791208 L71.656155 10.681204 L71.873371 10.416927 L72.195308 10.303449 L72.627716 10.331748 L73.145488 10.27904 L73.621734 10.226238 L73.989104 10.187628 L73.914618 9.1254578 L72.240051 9.0588239 L72.183551 8.6791797 L73.855603 8.5163412 L73.603185 6.3415504 L74.545477 7.1636999 L75.341126 7.5779745 L76.140718 7.7774185 L76.593258 7.8688038 L77.214442 7.8953926 L91.067826 7.5432846 L91.389169 7.6467245 L91.698174 7.2590366 L91.878632 7.0947598 L92.017547 6.9632803 L92.172679 6.820093 L93.433707 5.657443 L94.172675 3.6497115 L94.559002 2.2699153 L94.617683 2.093398 L94.82843 1.6398189 L94.954069 1.3112978 L91.404091 1.3279471 L91.292323 -4.8888934 L91.290309 -5.0525226 L91.23468 -6.9808439 L91.252247 -7.1220195 L91.21898 -8.767738 L91.187063 -10.338037 L89.092928 -10.314751 L89.034574 -10.620879 L89.091817 -10.947298 L89.049713 -12.789482 L90.876635 -12.914318 L91.049845 -15.245318 L94.373583 -15.291169 L94.456688 -12.953095 L96.727464 -12.927026 L96.782092 -10.794126 L96.809996 -8.7535944 L96.821091 -8.3925423 L96.825821 -8.0026443 L96.920979 -7.4064001 L101.91089 -7.432334 L103.93444 -7.4328437 L104.10727 -7.4508833 L109.50496 -7.5050886 L109.58937 -4.6747731 L113.2084 -4.6876236 L112.92373 -4.2502531 L112.98365 -3.5001343 L113.6516 -3.4714555 L113.73276 -2.9504383 L113.86505 -2.3254945 L113.94416 -1.8360954 L113.8732 -1.6230373 L113.66817 -1.3572801 L113.49676 -1.2306346 L113.29553 -1.1797142 L112.82602 -1.1058524 L112.40255 -0.8989162 L111.88756 -0.5879844 L111.61514 -0.34572008 L111.49573 -0.15190695 L111.19741 0.60271461 L111.13909 0.81818961 L114.23904 0.94320261 L114.46854 -1.3397117 L120.18808 -1.4444342 L120.18058 -0.99814468 L120.17299 -0.67011652 L120.1187 0.60263419 L120.1567 1.1385418 L120.16521 1.3334203 L120.18863 1.6943366 L120.18906 2.2843701 L120.11098 3.2367394 L119.94794 5.27184 L125.07171 5.2674698 L125.26756 5.2991473 L125.76366 5.2839833 L125.90252 3.1172487 L143.5374 2.8870567 L143.70504 2.5478733 L144.24552 1.9728952 L144.17077 1.5014123 L144.24552 1.1449257 L144.67101 0.52969993 L145.02749 -0.29826847 L145.17124 -1.1952355 L145.20573 -1.988703 L145.10799 -2.2416933 L144.95274 -2.6326807 L144.95274 -3.2076578 L144.878 -3.4204004 L144.98724 -3.6733896 L145.02174 -3.926381 L144.80325 -4.6451041 L144.80325 -5.1453337 L145.30348 -6.7322719 L145.29773 -7.8477304 L145.47597 -8.4572073 L145.51047 -9.0666841 L146.08545 -10.22239 L146.15445 -10.544377 L145.97621 -10.900864 L146.22345 -11.372347 L145.82671 -11.907076 L145.82671 -12.30381 L146.0797 -12.556801 L146.50518 -12.809791 L146.97092 -13.275524 L147.00542 -13.994247 L146.90192 -14.281735 L146.75243 -14.42548 L146.32119 -14.459978 L146.36144 -14.67847 L146.78692 -15.431691 L146.78692 -15.650183 L146.46494 -15.650183 L146.0682 -15.397193 L145.88996 -15.431691 L145.56797 -16.075667 L145.77784 -16.688019 L145.31498 -16.616146 L145.06199 -16.794389 L145.13099 -17.01288 L145.41848 -17.409616 L145.56222 -18.231834 L145.84971 -18.306582 L146.02795 -18.306582 L146.67193 -18.778063 L146.81567 -19.06555 L146.67193 -19.209295 L146.2062 -19.13455 L145.70022 -18.847062 L144.59051 -17.909846 L143.76254 -17.472862 L143.40605 -17.438364 L143.26231 -17.616607 L145.26898 -19.203548 L145.66572 -19.456538 L146.95942 -19.962518 L147.67239 -20.106263 L148.141 -19.965394 L148.06913 -19.749776 L147.96563 -19.39329 L148.25312 -19.427788 L148.75335 -19.749776 L149.4002 -20.761737 L149.57557 -20.47425 L149.75956 -20.43975 L150.76002 -21.983567 L150.33166 -21.767949 L150.21954 -21.946193 L150.39779 -22.486672 L150.66515 -23.018527 L150.75427 -23.492885 L151.07626 -23.855119 L151.68574 -24.326602 L152.19172 -25.15457 L152.93919 -26.914002 L152.97369 -27.345236 L153.08293 -27.672974 L153.58316 -27.925966 L153.65216 -28.213453 L153.07719 -28.891928 L153.04269 -29.144917 L153.43367 -29.466904 L153.50842 -29.938388 L153.97415 -30.438619 L154.04315 -30.691609 L153.83041 -30.766355 L153.28993 -30.760605 L153.14618 -30.9446 L153.53717 -31.232089 L154.04315 -31.341333 L154.25589 -31.628821 L154.61812 -31.991059 L155.3311 -32.278548 L155.72783 -32.640785 L156.15907 -33.141015 L156.08432 -33.325008 L156.04982 -33.612497 L156.76279 -34.687706 L156.72542 -34.906198 L156.44081 -34.975195 L156.40631 -35.153438 L156.72829 -35.590423 L157.2659 -36.524762 L157.55051 -36.343644 L157.76901 -36.240146 L158.01624 -36.636881 L158.37848 -36.993368 L158.70047 -37.211859 L158.94771 -37.568347 L159.59744 -37.930582 L159.95392 -38.074327 L160.31041 -38.51131 L160.38516 -38.75855 L160.09767 -38.867796 L160.02292 -39.086288 L159.73543 -39.442775 L159.33869 -39.442775 L159.12595 -39.368027 L158.83846 -39.368027 L158.72922 -39.655515 L159.0512 -39.874008 L159.48244 -39.943005 L159.67793 -40.26787 L159.87342 -40.448987 L160.4484 -40.989466 L160.96071 -41.707618 L159.64135 -41.668762 L159.21808 -41.669262 L158.16712 -41.654101 L157.9649 -41.668661 L142.99027 -41.368705 L136.67015 -41.324991 L119.48304 -41.080651 L119.24177 -45.65944 L118.15516 -45.661733 L118.0826 -50.315953 L119.25919 -50.322356 L119.20802 -51.585577 L119.22052 -51.760875 L119.2006 -52.365382 L119.19385 -52.957892 L119.21345 -53.192083 L119.1638 -53.442529 L119.15927 -53.594833 L119.12902 -53.888545 L119.07905 -54.327142 L118.82454 -54.310175 L113.36464 -54.046676 L110.48653 -53.93522 L110.55256 -61.207524 L110.32672 -61.863322 L107.20127 -61.704588 L106.64624 -60.644554 L103.95816 -60.410746 L103.36251 -60.337823 L102.90869 -60.180918 L102.5762 -59.826006 L102.16535 -59.345498 L101.37464 -58.677617 L100.4954 -58.454859 L99.647379 -58.293819 L98.497086 -58.031951 L97.629629 -57.811172 L96.474378 -57.614373 L95.593141 -57.284059 L93.038968 -59.225719 L91.531712 -57.668563 L89.521555 -59.41205 L86.088042 -59.337578 L85.939491 -58.640848 L81.872217 -58.694833 L81.616063 -63.488035 L80.870058 -63.634629 L80.35202 -63.506639 L79.934815 -63.78393 L79.608493 -63.955608 L79.463321 -64.031764 L79.268779 -63.955789 L78.824953 -63.777571 L78.063392 -63.392031 L77.577889 -62.954363 L77.03918 -62.701399 L76.419208 -62.524742 L75.971545 -62.419312 L75.27173 -62.207734 L74.794543 -62.143462 L74.299657 -61.983705 L73.900448 -61.575851 L73.410726 -61.506282 L73.058148 -61.233264 L72.379998 -60.844181 L71.776116 -60.663165 L71.283932 -60.525131 L70.602887 -60.362914 L69.899538 -60.202951 L69.316374 -59.917315 L68.683492 -59.73842 L68.316615 -59.82635 L68.008628 -59.846641 L67.608568 -59.51221 L67.262168 -58.802581 L66.730792 -58.449807 L66.159933 -57.966737 L65.732742 -57.524531 L65.280627 -57.028291 L64.742884 -56.716314 L64.33163 -56.53576 L63.66501 -56.500158 L63.068645 -56.492317 L62.438357 -56.379175 L61.841016 -56.429471 L60.989545 -56.783891 L60.408326 -56.615741 L59.879498 -56.586358 L59.376357 -57.028458 L58.76174 -57.19098 L58.205276 -57.310795 L57.677883 -57.425233 L56.98568 -57.635914 L56.507258 -57.671078 L56.139717 -57.587532 L55.872561 -57.63574 L55.624678 -57.97124 L55.365752 -58.377549 L55.006785 -58.594568 L54.600748 -58.966935 L54.154305 -59.029342 L54.049294 -59.210766 L54.143995 -59.546382 L54.059711 -59.874479 L53.597319 -60.121416 L52.923759 -60.595644 L52.551521 -60.858485 L52.342198 -60.699677 L51.946768 -60.531323 L51.393094 -60.438177 L51.021341 -60.415889 L50.807484 -60.09591 L49.9426 -60.25999 L49.720113 -60.081169 L49.363358 -60.161987 L49.017434 -60.342678 L48.507649 -60.330628 L48.264306 -60.078634 L47.094657 -60.455202 L47.128497 -65.274578 L49.467963 -65.213735 L49.44418 -69.071472 L52.117101 -69.280895 L52.063559 -72.064872 L54.253523 -72.180006 L54.388787 -77.175856 L56.278299 -77.201149 L57.23462 -77.213908 L57.204667 -78.735623 L55.895683 -78.952127 L55.870501 -79.388416 L55.273218 -79.416866 L55.322118 -79.849032 L52.421913 -79.98844 L52.360143 -78.64129 L49.659126 -78.553629 L49.514825 -77.842073 L49.046011 -77.828037 L49.055812 -77.106424 L45.767531 -77.064149 L45.763765 -76.509522 L45.764516 -74.918041 L44.749415 -74.77947 L44.758447 -74.121134 L44.23033 -74.233431 L44.169477 -73.76464 L42.705959 -73.573812 L42.606516 -72.855165 L42.217627 -72.906058 L41.945437 -73.094724 L41.740332 -73.08486 L41.563822 -73.075389 L40.941863 -73.039937 L40.947534 -72.630234 L40.472006 -72.438257 L40.303365 -72.104132 L39.937089 -72.162342 L39.840104 -71.407919 L38.424118 -71.36139 L38.369866 -71.089578 L37.765252 -70.959051 L37.603745 -70.35715 L35.908789 -70.189626 L35.817761 -70.954218 L34.589493 -70.239213 L34.48232 -71.028187 L34.613585 -71.26401 L34.901015 -71.580016 L35.555639 -72.163594 L36.128655 -72.599618 L36.365706 -72.15927 L37.36666 -72.158546 L37.431415 -72.581378 L37.982224 -72.681754 L38.082336 -73.073113 L39.051259 -72.867319 L38.878613 -76.966571 L38.044671 -76.954967 L37.74818 -75.653728 L35.933708 -75.530575 L35.825345 -74.768308 L35.309669 -74.709942 L35.301249 -73.690162 L33.959786 -73.496167 L33.829446 -74.091429 L32.717485 -74.204909 L32.715172 -74.607628 L28.108636 -74.734788 L28.158192 -73.706236 L27.628015 -73.78179 L26.699041 -74.097767 L26.516312 -76.789767 L29.224199 -76.828344 L29.108351 -80.482792 L26.916332 -80.473315 L26.791768 -82.214879 L27.799036 -82.266323 L27.842392 -83.505241 L28.932471 -83.594267 L28.921278 -86.425513 L27.129751 -86.421749 L26.989357 -87.70983 L25.421788 -88.016664 L25.173282 -88.327635 L24.197512 -88.325792 L23.169996 -88.323175 L23.04389 -88.323918 L22.452941 -88.647202 L20.543945 -88.551239 L20.379467 -86.832361 L19.358375 -86.854007 L19.34933 -86.57834 L19.343191 -86.363449 L19.305518 -85.189801 L18.943933 -85.114231 L18.958743 -84.528853 L18.961253 -84.124218 L18.957695 -83.268152 L18.951874 -82.568041 L18.945417 -81.679969 L18.587201 -81.607001 L18.576608 -79.470327 L19.08964 -79.280238 L19.03537 -77.716375 L13.589694 -77.685415 L13.451225 -76.602968 L12.556327 -76.588524 L8.9754147 -76.534311 L6.0044845 -76.49009 L4.8266756 -76.477596 L4.8785758 -74.949163 L-3.5243717 -74.632408 L-3.6159513 -75.176981 L-7.4875689 -75.158653 L-10.519271 -72.393841 L-10.511488 -71.569048 L-10.499858 -70.408239 L-12.731677 -70.376244 L-201.10541 101.28586 L-199.78378 101.22429 L-199.67408 102.44906 L-196.64163 102.30318 L-195.03117 102.22513 L-195.06876 101.21303 L-193.821 101.03795 L-193.77665 98.631985 L-187.79191 98.413714 L-187.82192 102.8784 L-188.25086 103.42656 L-188.06531 105.999 L-188.74703 106.52056 L-188.67366 108.77309 L-184.53747 108.60748 L-184.51231 106.92582 L-181.79434 106.86664 L-181.98957 101.54091 L-174.04679 101.24511 Z "  fill="#FDD6D2" fill-rule="evenodd" stroke="#6E6E6E" fill-opacity="1" stroke-opacity="1"  stroke-width="0.7" stroke-linecap="round" stroke-linejoin="round" stroke-miterlimit="10" />
</g>
</g>
<g clip-path="url(#cp_2)">
<g transform="matrix(4.1666667 0 0 -4.1666667 977.3353 826.07132)">
<path d="M30.652857 97.333007 L30.851224 97.275507 L31.406078 97.315755 L31.837311 97.19501 L32.044304 96.936271 L32.073051 96.68903 L31.88906 96.510787 L31.429076 96.66603 L31.135837 96.602784 L30.908722 96.033556 L30.336618 96.194549 L29.520148 96.648782 L29.195287 96.996642 L29.21541 97.338755 L29.652393 97.396251 L30.652857 97.333007 Z M21.159968 97.045517 L21.111096 96.579784 L20.579241 96.844275 L19.828896 96.933395 L19.544279 97.160512 L19.30854 97.672242 L19.389035 97.991355 L20.924228 97.557246 L21.159968 97.045517 Z M17.45711 99.696165 L17.290366 99.572545 L16.956878 99.816911 L17.002878 100.1734 L17.18687 100.31714 L17.436985 100.27402 L17.572105 99.908907 L17.45711 99.696165 Z M21.527955 101.4556 L21.970688 100.47813 L22.350172 99.960655 L22.30705 99.713415 L21.849942 100.0124 L21.188718 100.78287 L20.929978 100.54138 L20.768986 100.6075 L20.579241 100.87487 L20.590741 101.26585 L21.027723 101.43835 L21.349712 101.57059 L21.527955 101.4556 Z M17.888344 103.85326 L17.526107 103.72101 L16.956878 103.80726 L16.712515 104.10337 L16.968378 104.27299 L17.290366 104.30174 L17.508858 104.26149 L17.859593 104.07175 L17.888344 103.85326 Z M23.551878 105.90018 L23.189641 105.87143 L22.942402 106.05542 L22.94815 106.30841 L23.137892 106.55565 L23.563378 106.47516 L23.707122 106.29116 L23.735868 106.07267 L23.551878 105.90018 Z M25.762667 105.9663 L25.524052 105.70469 L24.845578 106.00942 L24.569588 106.30266 L24.575338 106.55565 L24.903077 106.76265 L25.156066 106.82589 L25.331434 106.69652 L25.616048 106.45216 L25.762667 105.9663 Z M27.812465 106.79139 L27.381231 106.7684 L27.168489 106.84314 L27.145491 107.23988 L27.444479 107.66536 L27.806714 107.76311 L28.117203 107.46987 L28.145952 107.10763 L27.996459 106.89489 L27.812465 106.79139 Z M26.582012 107.68836 L26.219775 107.64524 L26.08178 107.8781 L26.127779 108.20009 L26.346271 108.33809 L26.633759 108.33521 L26.731504 108.0046 L26.582012 107.68836 Z M28.68068 109.71803 L28.424817 109.56279 L28.145952 109.83878 L28.260947 110.05152 L28.513937 110.04577 L28.651933 109.93077 L28.68068 109.71803 Z M34.493709 107.87235 L34.275217 107.76886 L33.94748 107.78036 L33.487499 107.9701 L32.786024 108.56808 L31.906308 109.3788 L31.84306 109.66629 L31.923559 109.95377 L32.216796 110.16077 L32.682528 110.08027 L33.211508 109.70654 L33.501873 109.23218 L33.694489 108.93606 L34.390213 108.23459 L34.493709 107.87235 Z M30.123876 109.82153 L29.905385 109.71803 L29.583397 109.76403 L29.514398 109.98252 L29.666769 110.22976 L30.023254 110.18664 L30.123876 109.82153 Z M28.741055 110.56038 L28.559937 110.477 L28.424815 110.61787 L28.565686 110.83349 L28.743929 110.75874 L28.741055 110.56038 Z M30.966219 110.44826 L30.675855 110.38501 L30.250371 110.684 L30.26187 110.93124 L30.618358 110.92549 L30.974844 110.73574 L30.966219 110.44826 Z M30.135375 111.62121 L29.801889 111.27047 L28.508188 111.37397 L28.226447 111.59821 L28.168951 112.06969 L27.996459 112.35718 L28.007959 112.64467 L28.151703 112.78842 L28.370192 112.85166 L28.801425 112.77117 L29.002669 112.66767 L29.824887 112.23644 L30.106626 111.9087 L30.135375 111.62121 Z M9.8443985 114.88709 L9.6604078 114.67434 L9.1946739 114.69159 L8.8784371 114.91583 L8.884186 115.16308 L9.1371773 115.33557 L9.7064055 115.10558 L9.8443985 114.88709 Z M1.9327021 117.39974 L1.7142095 117.29624 L1.357724 117.37674 L0.68499952 117.79073 L0.23076763 118.26796 L0.24226757 118.66469 L0.60450309 118.79694 L1.1449824 118.71069 L1.5704655 118.55545 L1.7084616 118.4462 L2.0591962 117.93447 L2.0821961 117.57223 L1.9327021 117.39974 Z M9.3125467 119.14192 L8.4127042 119.13042 L8.1999637 119.27992 L8.2430869 119.56741 L8.5708247 119.68528 L8.9991823 119.61916 L9.3154201 119.39491 L9.3125467 119.14192 Z M7.7744796 119.46966 L7.555987 119.40641 L7.417994 119.59041 L7.5329882 119.80315 L7.8176028 119.72265 L7.7744796 119.46966 Z M10.90236 119.49841 L10.683868 119.39491 L10.149138 119.48116 L9.6144091 119.71115 L9.6201591 119.88939 L9.8788983 120.13664 L10.448127 120.01014 L10.836238 119.69678 L10.90236 119.49841 Z M1.2139789 122.84478 L1.0299893 122.78728 L0.8229946 122.95978 L0.79999473 123.32201 L0.90924101 123.53476 L1.1967311 123.529 L1.3404741 123.41401 L1.3634739 123.02303 L1.2139789 122.84478 Z M-2.0576459 124.15573 L-1.5344165 123.41976 L-1.5056666 123.09777 L-1.6954083 122.74128 L-1.8161545 122.27555 L-2.1438934 122.17781 L-2.5693765 122.33305 L-3.0983559 122.67229 L-3.7049572 122.78728 L-4.3058097 123.27602 L-4.5817978 123.6785 L-4.5760499 123.86249 L-4.2885608 123.99474 L-4.0355695 123.98899 L-3.6790839 123.90849 L-3.3168474 123.97174 L-2.8798633 124.28223 L-2.3738838 124.30523 L-2.0576459 124.15573 Z M-24.706031 129.13504 L-24.993521 129.0718 L-25.459252 129.26729 L-25.953733 129.60077 L-26.54596 130.2275 L-26.8507 130.95772 L-27.408428 131.61895 L-27.465926 132.19393 L-27.126689 132.7574 L-26.833449 133.00464 L-26.361968 132.99314 L-26.011232 132.72865 L-25.775491 132.22267 L-25.712243 131.82594 L-25.79849 131.39471 L-25.80999 130.96347 L-25.706493 130.71048 L-25.424754 130.45174 L-24.74628 130.32525 L-24.389793 130.1355 L-24.326546 129.91701 L-24.706031 129.13504 Z M-51.97149 136.18427 L-51.689752 135.96003 L-50.66629 135.36205 L-50.131561 135.10331 L-49.280593 134.67783 L-48.147886 134.03386 L-47.687904 133.84411 L-46.509199 133.48763 L-46.014718 133.25763 L-45.732978 132.99889 L-45.359242 132.19967 L-45.198249 131.54995 L-45.216622 131.11246 L-45.394562 131.44914 L-45.95277 131.44474 L-46.187824 131.49631 L-46.402543 131.52677 L-46.67088 131.59968 L-46.86414 131.66366 L-47.050714 131.75247 L-47.138636 132.04166 L-47.264289 132.32381 L-47.422941 132.38274 L-47.698143 132.51907 L-48.048596 132.70335 L-48.285376 133.03661 L-48.710484 133.35322 L-49.229386 133.41055 L-49.42554 133.30197 L-49.678356 133.05496 L-49.968817 132.48443 L-49.971003 131.97105 L-50.415298 125.66989 L-50.433756 125.40188 L-50.441342 122.98849 L-50.467169 122.39975 L-51.309452 122.40439 L-54.44481 122.40386 L-54.424332 122.0963 L-54.429738 121.87677 L-55.557818 121.83012 L-55.524403 123.7905 L-55.518908 124.50523 L-55.512574 125.61251 L-55.028315 125.6861 L-53.816661 125.76395 L-53.754224 126.60942 L-53.943279 126.83577 L-54.045426 127.10924 L-54.139723 127.95481 L-54.518437 129.13195 L-54.914283 129.84136 L-55.01782 130.03206 L-55.838199 130.63522 L-56.427917 130.83071 L-56.835672 131.03525 L-57.072547 131.35834 L-57.089901 131.83433 L-56.664571 132.65889 L-56.621688 132.88556 L-56.5756 133.00031 L-56.433322 133.21164 L-56.45632 133.82111 L-56.69781 134.2236 L-57.221041 134.81583 L-57.646525 134.97107 L-57.859266 135.18956 L-57.778769 135.33331 L-57.313037 135.3563 L-56.743809 135.27006 L-55.133869 134.86757 L-54.984376 135.08032 L-54.794634 135.5403 L-54.857881 135.82779 L-55.174118 136.01753 L-55.63985 136.10377 L-56.214828 136.04628 L-56.864555 136.09803 L-57.077297 136.17852 L-57.180792 136.32227 L-56.996798 136.56951 L-56.525317 136.70175 L-54.3634 136.93174 L-53.213443 136.903 L-52.931705 136.742 L-51.97149 136.18427 Z M-146.05515 160.4541 L-144.76145 160.3851 L-144.25547 160.51734 L-144.00823 160.43685 L-142.51329 161.25907 L-141.00109 161.40281 L-139.81664 161.25907 L-138.91967 161.20157 L-138.59194 161.37406 L-138.17795 162.00654 L-137.88471 162.28828 L-137.48798 162.35152 L-137.27523 162.23653 L-137.13724 162.01804 L-136.93025 161.79379 L-136.07353 161.55805 L-135.24556 160.3161 L-133.35603 158.1437 L-133.49448 158.08936 L-133.50564 157.51857 L-133.5136 157.11141 L-133.52561 156.49716 L-135.50141 156.99176 L-135.89596 157.16831 L-135.87363 156.51885 L-135.91453 155.8182 L-137.11493 155.79446 L-138.10601 155.77496 L-138.12691 153.5898 L-136.6717 153.52473 L-134.07261 153.38681 L-133.9061 152.20444 L-133.80954 151.84512 L-133.50556 151.81807 L-132.97822 151.74191 L-131.08654 151.34886 L-131.15671 151.17759 L-131.22201 150.9346 L-131.225 150.45924 L-131.28588 146.3454 L-130.87459 146.34475 L-130.19687 146.29481 L-130.23284 143.62719 L-128.85958 143.57879 L-126.17908 143.74114 L-124.8668 143.67236 L-123.99776 143.62877 L-123.96359 142.58139 L-122.8699 142.7458 L-122.54388 142.79581 L-120.7448 142.70508 L-120.02181 142.66951 L-119.6525 142.64519 L-119.34946 142.65156 L-118.58744 142.66899 L-118.38636 142.67475 L-110.78634 142.53596 L-110.8167 141.94379 L-110.83768 141.49532 L-110.85819 140.7492 L-110.88588 140.13237 L-108.46354 140.092 L-106.33493 140.05218 L-106.27691 142.4655 L-106.2392 144.32867 L-106.21858 145.51119 L-106.209 146.79622 L-106.12773 149.09018 L-103.94533 149.23493 L-103.74781 149.41157 L-101.54183 148.73441 L-99.030919 147.84845 L-96.889739 147.13573 L-95.159641 146.57711 L-94.920759 147.09768 L-94.076274 147.26957 L-94.06066 148.80832 L-95.141692 149.28912 L-95.060141 150.95839 L-95.332582 151.04394 L-95.151281 152.25293 L-95.086494 152.4131 L-92.852431 151.67993 L-90.385776 151.25445 L-89.120825 151.50744 L-88.327353 151.59368 L-87.464887 151.46719 L-86.257432 150.96696 L-85.722703 150.88071 L-85.509961 150.76571 L-85.481211 150.40923 L-85.682454 149.76525 L-85.946944 149.08678 L-85.130476 148.88554 L-84.986731 148.77629 L-85.00398 148.20131 L-84.612994 148.08057 L-84.302507 148.13519 L-83.135301 148.81654 L-83.095054 148.36806 L-83.221547 148.00007 L-83.365292 147.62059 L-83.882773 147.09161 L-84.066767 146.80987 L-84.112765 146.45338 L-84.055268 146.09114 L-83.704529 145.68866 L-83.491788 145.60816 L-83.054804 145.67141 L-82.341832 145.64841 L-82.042844 145.59666 L-81.657607 145.52767 L-80.984884 145.25743 L-79.852178 144.61345 L-79.560767 144.42598 L-79.721177 144.24236 L-79.969328 143.91494 L-79.892914 143.18659 L-80.898305 143.12909 L-81.203398 142.98301 L-81.820061 142.72614 L-82.289402 142.50755 L-82.61714 142.35741 L-82.498547 142.21399 L-81.995147 141.48757 L-81.635271 141.48369 L-80.742682 141.39804 L-80.671753 140.98309 L-80.684752 140.44239 L-80.789034 139.96088 L-80.525541 139.44882 L-80.545362 139.32161 L-79.823875 138.09474 L-80.458791 138.09691 L-80.536398 136.95635 L-80.227439 136.77756 L-80.177205 136.18523 L-79.600165 135.65448 L-78.931697 135.41111 L-79.215433 134.87204 L-79.915349 134.05523 L-80.286512 133.63026 L-80.588055 133.36006 L-80.803254 132.91697 L-79.788793 131.33109 L-79.58094 131.01025 L-78.96066 130.91865 L-78.62351 130.86406 L-78.629088 130.38589 L-78.626332 130.00029 L-78.637623 129.52991 L-78.66808 128.9924 L-79.873446 128.90293 L-79.872426 128.25649 L-79.885547 124.82257 L-79.884141 124.54953 L-78.593516 124.48756 L-76.187728 124.36943 L-75.412788 124.00918 L-72.676071 122.73907 L-72.481433 122.75291 L-71.114989 122.83824 L-70.407071 122.82328 L-70.642155 121.95656 L-70.801487 121.42899 L-69.576192 121.2576 L-68.446061 121.14259 L-68.440529 121.45962 L-67.661557 121.322 L-66.703998 121.16402 L-65.922653 120.80134 L-65.448713 120.91267 L-65.010061 120.36351 L-63.839654 119.89183 L-63.367522 119.89837 L-62.895623 119.69777 L-61.962951 119.5717 L-61.302103 119.61146 L-61.382137 122.18142 L-63.546538 122.26269 L-63.5686 125.40134 L-62.452716 125.39719 L-60.558712 125.37221 L-60.585151 124.95324 L-60.538984 123.91921 L-60.53834 121.9154 L-56.920158 121.81181 L-56.890468 120.76017 L-55.77734 120.74885 L-53.911914 120.72413 L-53.721402 120.10134 L-53.465363 119.59445 L-53.196067 119.1046 L-52.773242 118.64411 L-52.192234 118.11702 L-50.974871 117.29146 L-50.664015 116.98123 L-49.691503 116.38428 L-49.126637 116.20917 L-48.187549 116.10833 L-47.949232 116.05766 L-47.716723 116.00964 L-47.196365 115.84746 L-46.760902 115.55947 L-46.786954 115.1651 L-46.969694 114.90251 L-46.434621 114.86861 L-46.307849 115.38501 L-46.049326 115.3794 L-45.604721 115.37452 L-41.839753 115.3169 L-41.323051 115.31024 L-40.58115 115.30561 L-39.246711 115.27842 L-37.047904 115.32017 L-37.030449 116.01263 L-37.029387 117.81784 L-37.026464 117.99554 L-37.039012 118.19842 L-38.679882 118.10591 L-39.075018 118.12905 L-39.014843 119.08902 L-39.512659 119.07103 L-40.155658 119.34956 L-41.069341 119.84295 L-41.886569 120.55406 L-42.245141 120.66231 L-42.472521 120.79077 L-42.630963 120.86629 L-42.816445 121.02538 L-42.888705 121.28041 L-43.139146 121.55503 L-43.674437 121.79476 L-44.256294 122.47516 L-44.435307 122.64502 L-44.537325 122.84429 L-44.706775 123.18598 L-44.811963 123.39553 L-44.94187 123.6266 L-44.99261 123.84227 L-44.291696 124.26265 L-44.11154 123.75325 L-43.697556 123.06327 L-41.736881 121.1026 L-40.960661 120.43562 L-40.22469 119.91239 L-39.12073 119.52716 L-38.367509 119.39491 L-37.2923 119.37191 L-36.746072 119.46391 L-35.877854 119.83765 L-35.550117 119.86065 L-35.412122 119.67665 L-35.291377 118.92343 L-34.831396 118.47495 L-34.578406 118.61294 L-34.394411 118.79119 L-34.411662 119.40066 L-34.998139 120.38963 L-35.136133 120.67711 L-35.090135 120.9301 L-34.584153 121.13135 L-34.250666 121.40734 L-34.279416 121.73507 L-34.658901 122.28131 L-35.400623 122.80453 L-35.923853 123.35651 L-36.268839 123.97749 L-36.326337 124.48347 L-36.090596 124.79971 L-35.348875 124.78246 L-35.067137 124.59272 L-34.365661 123.93149 L-33.531944 122.93678 L-33.11221 122.49405 L-32.485484 121.61433 L-31.755262 120.83811 L-30.910045 120.13664 L-29.886584 119.38916 L-28.730877 118.17021 L-28.40314 117.37674 L-28.224898 116.93976 L-27.914409 116.60627 L-27.483175 116.45103 L-26.982945 116.43953 L-26.833449 116.57752 L-26.649459 116.89376 L-26.551711 117.75623 L-26.333219 117.96322 L-25.896237 118.02647 L-25.183262 117.93447 L-24.435793 117.69873 L-24.010308 117.50899 L-23.763067 117.141 L-23.642321 116.38203 L-23.441079 115.87605 L-23.090344 115.47356 L-22.526864 114.99058 L-22.216377 114.65709 L-22.14738 114.4386 L-22.227876 114.15686 L-22.279626 113.65088 L-21.900138 112.96091 L-21.480403 112.51818 L-21.089419 112.32843 L-20.548939 112.31118 L-19.904964 112.40318 L-18.887254 112.73667 L-18.375522 113.1564 L-18.001787 113.64513 L-17.697048 114.32361 L-17.536055 114.96758 L-17.553304 115.61156 L-17.725799 115.93929 L-18.387023 116.60627 L-18.519268 117.14675 L-19.036747 117.88272 L-19.416233 118.5382 L-19.697974 118.86593 L-20.399447 119.49841 L-20.594938 120.14813 L-20.905426 120.55637 L-21.641398 121.32684 L-22.268126 122.17206 L-22.618861 122.4653 L-23.866564 124.19023 L-24.263298 124.23623 L-24.47029 124.38572 L-24.447292 125.35744 L-24.75778 125.86917 L-24.717531 126.04741 L-24.42429 126.11066 L-23.705569 126.09341 L-23.101843 125.82317 L-22.613113 125.38043 L-21.710395 124.27648 L-21.112418 123.759 L-19.588726 122.89078 L-18.605514 122.07431 L-18.289277 121.67183 L-17.737298 120.45 L-17.610801 120.25163 L-17.15657 119.8434 L-16.443597 119.57316 L-16.276853 119.10167 L-16.029611 118.84294 L-15.569629 118.68769 L-15.029151 118.74519 L-14.784786 118.98955 L-14.868156 119.38916 L-14.856656 119.71115 L-14.52317 120.06189 L-14.339177 120.37813 L-14.287429 120.9876 L-14.137933 121.20034 L-13.850445 121.1946 L-13.286967 120.67711 L-12.890234 120.63112 L-12.602744 120.80361 L-12.522247 121.1256 L-12.832735 121.48783 L-13.7527 122.12606 L-14.063189 122.56304 L-14.160932 123.00003 L-14.074689 123.50026 L-13.884943 123.85674 L-13.700952 123.99474 L-13.413462 123.94874 L-12.924731 123.50601 L-12.711989 123.46576 L-12.502122 123.90849 L-12.303754 123.77625 L-12.286506 123.09202 L-12.15426 122.72978 L-11.87252 122.50554 L-11.332042 122.60329 L-10.975555 122.44805 L-10.55582 121.93632 L-10.308581 121.78107 L-9.7738528 121.73507 L-9.4231141 121.36709 L-9.1528759 120.81511 L-9.1241261 120.49312 L-9.2678701 120.35513 L-9.883098 120.33213 L-9.9233447 120.15388 L-9.3713654 119.31442 L-8.9458833 118.98093 L-8.3364064 119.03268 L-8.0546663 119.02693 L-7.8706746 119.02118 L-7.6176833 118.90618 L-7.3761929 118.64744 L-7.2381968 118.35995 L-7.2324489 117.35374 L-7.065705 116.80751 L-6.8184626 116.69252 L-6.3124842 116.64652 L-6.1284904 116.89376 L-5.9099978 117.03175 L-5.5305124 116.47977 L-4.7657926 113.97862 L-4.6220475 112.68492 L-3.9550741 112.01795 L-3.5525888 112.32843 L-3.1213547 112.35718 L-2.7648691 112.20194 L-2.0346471 111.32222 L-1.5056666 110.87374 L-0.86744201 110.67825 L-0.20046543 109.97677 L0.23076763 109.96527 L0.84599448 110.23551 L1.0702349 110.44826 L1.5532177 111.15548 L2.0304495 111.42572 L2.3524373 111.41997 L2.7031708 111.23022 L2.984912 111.00598 L3.3471485 110.95999 L3.9623733 111.19573 L4.2498634 111.18998 L4.7098453 111.00023 L5.5953113 110.47126 L6.084043 109.81003 L7.1535028 109.60304 L7.6939842 109.59154 L8.1309651 109.90202 L8.3092079 109.75253 L8.7864407 108.87857 L8.8496872 108.48183 L8.7001943 108.19434 L8.1942137 108.17134 L7.7629796 108.11384 L7.5387392 107.83211 L7.4927394 107.40087 L7.6939842 106.96389 L8.0504687 106.70515 L9.1199285 106.56715 L9.6201591 106.41191 L10.114641 106.07267 L10.36188 105.81393 L10.448127 105.02046 L10.839112 104.79622 L11.264597 104.67548 L11.580834 104.45123 L12.20181 103.39327 L12.696291 103.12878 L13.696755 102.8528 L14.369478 102.58255 L14.789211 102.10532 L14.817961 101.70859 L14.645466 100.81162 L14.823711 100.62763 L15.289444 100.50688 L15.461936 100.36314 L15.697676 99.851409 L15.686176 99.345429 L15.427437 99.138438 L15.283693 98.965943 L15.157199 98.425463 L15.214695 97.884985 L15.387187 97.597496 L15.709177 97.47675 L16.755637 97.557246 L17.296116 97.72399 L18.129833 97.844736 L18.48057 97.654994 L18.722061 97.327255 L18.785309 96.821275 L18.302326 96.332543 L16.962628 95.935808 L15.375687 95.61957 L14.57647 95.493075 L14.248732 95.326332 L13.915244 94.900847 L13.691002 94.509863 L13.392015 94.199374 L11.051853 93.900386 L9.5339106 93.653146 L7.7399808 93.699144 L6.4175297 94.05563 L5.5550636 94.078628 L5.049083 93.952135 L3.6518854 93.952135 L1.656713 94.757104 L0.56425435 95.401079 L-0.0049737938 95.63107 L-0.93643955 95.832312 L-2.5118778 96.091052 L-4.0470694 96.493538 L-4.8635389 96.798274 L-5.2142756 97.022518 L-5.875499 97.907985 L-6.5194736 98.103475 L-7.1864502 98.661206 L-7.7959261 98.712951 L-7.657932 98.419715 L-7.6349321 97.879235 L-7.8246749 97.562995 L-8.3709052 97.252507 L-10.038342 96.758029 L-10.36033 96.694779 L-10.653568 96.631531 L-13.384712 96.70053 L-13.672201 96.602784 L-14.149433 96.292296 L-14.701413 95.763316 L-14.994652 95.63107 L-15.207394 95.671319 L-15.770873 96.154299 L-16.092861 96.125552 L-16.202105 95.987556 L-16.213604 95.659819 L-16.006612 95.406829 L-15.759373 95.113591 L-15.224643 94.918097 L-14.804909 94.653607 L-14.666915 94.400618 L-14.494422 94.107379 L-14.586418 93.319659 L-14.52317 92.922924 L-14.287429 92.301948 L-13.838945 91.680971 L-12.579744 90.462017 L-11.631029 89.473055 L-10.716815 88.794583 L-9.9003458 88.415094 L-9.1183761 88.179355 L-8.250159 88.225352 L-7.6061833 88.139106 L-7.0024564 87.834368 L-6.5539735 87.138645 L-6.0997405 86.839655 L-5.8122525 86.690161 L-2.4026315 86.523418 L0.28826523 86.454422 L1.5819644 86.494669 L2.4099339 86.47167 L3.9106267 86.178431 L5.9402979 85.551704 L9.0273649 85.477829 L9.1046516 85.105651 L9.0752542 84.589896 L9.0945033 83.331409 L9.1265329 82.674979 L11.993282 82.632211 L12.169294 82.675624 L12.479017 82.676136 L12.724842 82.657779 L12.944724 82.639809 L13.091161 82.608228 L17.096895 82.490863 L17.091256 81.737822 L17.106764 80.117547 L17.111473 79.783111 L17.086763 78.103332 L17.039299 77.594169 L17.015029 76.926115 L16.5297 76.943487 L16.252261 76.950131 L9.947149 77.131248 L6.7547766 77.225116 L6.3603548 71.180445 L7.6113455 71.093245 L7.5181782 69.34864 L8.7565639 69.281496 L8.6835784 64.82393 L13.240872 64.500335 L13.001854 59.789514 L10.732585 59.95749 L10.6067 53.220902 L6.9654981 53.394894 L-2.3054618 53.46954 L-2.5907981 52.973953 L-2.9272293 51.905672 L-11.172078 52.208863 L-11.029685 55.594476 L-13.227574 55.655004 L-13.16998 60.780937 L-16.075722 60.89751 L-16.079537 63.714495 L-18.352363 63.84754 L-18.256409 66.684053 L-18.218429 67.867511 L-21.142468 68.004038 L-21.055829 73.265727 L-25.048522 73.28091 L-25.248836 67.369544 L-31.07387 67.492906 L-30.96817 69.69822 L-30.958012 69.937171 L-30.842986 72.279156 L-27.976047 72.18356 L-27.872255 76.828022 L-30.160464 76.960272 L-30.042354 82.080184 L-33.574924 82.242467 L-33.702992 83.961856 L-33.702271 85.596029 L-34.721897 85.71754 L-37.034751 85.660181 L-37.091948 84.292902 L-37.155643 84.13539 L-37.066503 83.319389 L-40.631567 83.431848 L-40.591173 78.735754 L-36.57322 78.562175 L-36.786177 72.190688 L-39.075537 72.247509 L-39.078219 68.984296 L-64.532816 69.280263 L-64.626515 67.008292 L-61.251011 66.891963 L-61.177834 64.641421 L-58.886064 64.495383 L-59.027464 59.97303 L-56.722504 59.843557 L-56.773584 57.58109 L-58.291009 57.621662 L-58.543493 57.628531 L-63.827245 57.770362 L-64.073027 57.777157 L-64.839698 57.797428 L-64.841285 58.360096 L-64.844923 60.646533 L-67.685871 60.830021 L-67.697523 64.764255 L-69.873561 64.74843 L-69.861728 65.066631 L-69.859164 65.213641 L-69.742143 69.353441 L-72.74961 69.476375 L-72.662833 72.060477 L-77.298849 72.209258 L-77.515134 72.204559 L-89.535436 72.600018 L-93.862671 72.675956 L-94.107129 72.680409 L-98.667565 72.758696 L-98.788522 73.99302 L-111.44826 74.364243 L-111.93036 74.378407 L-112.0416 76.536549 L-114.9533 76.697098 L-115.26523 76.763518 L-115.39255 76.694949 L-118.54863 76.784145 L-119.18724 76.800755 L-119.42907 76.832209 L-121.01327 76.850231 L-123.27024 76.915731 L-123.25951 73.976176 L-131.99745 73.966852 L-142.94464 73.861562 L-143.18659 75.200174 L-143.67161 76.209819 L-144.77141 76.809634 L-145.75291 77.22938 L-145.77783 75.97405 L-151.0656 78.499047 L-155.76204 80.847413 L-159.42534 80.869727 L-159.36824 83.683989 L-158.38015 83.731735 L-158.32647 85.286067 L-158.30086 86.240541 L-158.3937 90.169178 L-158.39933 90.366877 L-158.41033 90.918293 L-169.71927 91.13992 L-169.71247 94.574222 L-174.20895 94.667296 L-174.04679 101.24511 L-181.98957 101.54091 L-181.79434 106.86664 L-184.51231 106.92582 L-184.53747 108.60748 L-188.67366 108.77309 L-188.74703 106.52056 L-188.06531 105.999 L-188.25086 103.42656 L-187.82192 102.8784 L-187.79191 98.413714 L-193.77665 98.631985 L-193.821 101.03795 L-195.06876 101.21303 L-195.03117 102.22513 L-196.64163 102.30318 L-199.67408 102.44906 L-199.78378 101.22429 L-201.10541 101.28586 L-204.4655 104.34568 L-204.44044 104.96173 L-202.18533 107.29194 L-202.11029 107.45053 L-150.63993 162.40022 L-150.00525 162.03529 L-148.72305 161.46031 L-148.33206 161.23607 L-146.87737 160.62084 L-146.05515 160.4541 Z "  fill="#FEFDB3" fill-rule="evenodd" stroke="#6E6E6E" fill-opacity="1" stroke-opacity="1"  stroke-width="0.7" stroke-linecap="round" stroke-linejoin="round" stroke-miterlimit="10" />
</g>
</g>
<g clip-path="url(#cp_2)">
<g transform="matrix(4.1666667 0 0 -4.1666667 977.3353 826.07132)">
<path d="M17.096895 82.490863 L13.091161 82.608228 L12.944724 82.639809 L12.724842 82.657779 L12.479017 82.676136 L12.169294 82.675624 L11.993282 82.632211 L9.1265329 82.674979 L9.0945033 83.331409 L9.0752542 84.589896 L9.1046516 85.105651 L9.384168 85.404894 L9.4875568 85.507617 L9.623466 85.638306 L9.9018982 85.770196 L10.310131 86.189931 L10.746493 86.323406 L10.943267 86.203466 L11.131108 86.059056 L11.484853 86.039081 L11.571388 86.257721 L11.886697 86.214029 L12.115625 86.158838 L12.415273 86.103236 L13.034717 86.10874 L13.030914 85.006597 L15.545235 85.088931 L16.221824 85.279058 L17.076034 85.624073 L17.108448 83.702851 L17.096895 82.490863 Z "  fill="#FDB8DD" fill-rule="evenodd" stroke="#6E6E6E" fill-opacity="1" stroke-opacity="1"  stroke-width="0.7" stroke-linecap="round" stroke-linejoin="round" stroke-miterlimit="10" />
</g>
</g>
<g clip-path="url(#cp_2)">
<g transform="matrix(4.1666667 0 0 -4.1666667 977.3353 826.07132)">
<path d="M198.54645 -143.39306 L198.69019 -143.68055 L197.89673 -143.6748 L197.69548 -143.62305 L197.25275 -143.53105 L196.81864 -143.70642 L196.67777 -143.4563 L196.75252 -142.59384 L196.97101 -142.3811 L197.2585 -142.73758 L198.54645 -143.39306 Z M191.3629 -140.19479 L190.75263 -140.12802 L187.60642 -140.31909 L187.70582 -142.1098 L187.75419 -142.8073 L187.95032 -142.78961 L193.10461 -142.76565 L193.12303 -142.17327 L192.74861 -141.59012 L192.21705 -141.00235 L191.80637 -140.5646 L191.3629 -140.19479 L191.66396 -140.12718 L191.73871 -139.69595 L191.59496 -138.97148 L191.74446 -138.68974 L192.03195 -138.68974 L192.31369 -139.19572 L192.88866 -139.91444 L193.3199 -139.98919 L193.60739 -139.6327 L193.96387 -139.5637 L194.32611 -139.27621 L194.5446 -139.41996 L194.6826 -139.78219 L195.53931 -141.0759 L196.32703 -141.51288 L196.53978 -142.01886 L196.24654 -143.16307 L195.9188 -144.27853 L196.89051 -143.96229 L197.39649 -143.96229 L198.32796 -144.18078 L198.61545 -144.46827 L198.46595 -144.8995 L197.81623 -145.25599 L196.77839 -144.96562 L197.02851 -145.32498 L197.60349 -145.68722 L197.80859 -145.89535 L152.32672 -164.71018 L152.38652 -153.02061 L152.61095 -142.15995 L152.6096 -130.43335 L152.60611 -118.96749 L162.26655 -119.0318 L169.08418 -119.05012 L169.22535 -119.06173 L170.70205 -119.20976 L170.87832 -119.22873 L171.10378 -119.21175 L171.93571 -119.23454 L172.88323 -119.23606 L174.58053 -119.242 L176.95027 -120.64118 L177.95649 -121.65889 L178.14623 -122.04412 L178.22097 -122.19362 L178.60046 -122.95259 L179.16969 -123.38957 L180.75088 -123.82655 L181.40923 -124.28941 L181.75134 -124.91326 L181.74559 -125.97122 L181.74559 -126.20696 L182.53331 -126.71294 L183.02779 -127.65016 L183.08529 -128.77712 L183.09679 -128.94386 L182.7288 -129.87532 L183.23478 -130.3813 L184.95397 -131.03678 L185.81643 -131.18627 L186.17867 -130.82404 L186.32242 -130.11107 L186.18442 -129.24285 L185.3392 -125.93672 L184.98847 -123.91855 L185.20696 -123.49307 L185.49445 -123.34932 L185.78193 -123.63681 L186.7709 -127.09243 L186.7594 -128.81736 L187.18488 -130.18581 L187.82886 -130.83554 L188.40384 -131.19777 L188.82932 -131.62901 L188.89832 -132.63522 L188.86382 -133.23319 L188.81782 -134.07266 L188.60508 -134.07266 L188.46133 -133.78517 L188.24859 -133.56668 L188.0991 -133.78517 L188.45558 -134.79139 L190.23802 -137.95951 L190.66925 -138.32175 L190.88199 -138.75298 L190.6635 -138.97148 L190.44501 -138.96573 L190.37601 -139.18422 L191.3629 -140.19479 Z "  fill="#FDF1D7" fill-rule="evenodd" stroke="#6E6E6E" fill-opacity="1" stroke-opacity="1"  stroke-width="0.7" stroke-linecap="round" stroke-linejoin="round" stroke-miterlimit="10" />
</g>
</g>
<g clip-path="url(#cp_2)">
<g transform="matrix(4.1666667 0 0 -4.1666667 977.3353 826.07132)">
<path d="M123.36027 -60.755505 L123.06908 -60.670966 L122.71259 -60.665214 L122.70684 -60.849209 L123.03458 -61.171196 L122.81609 -61.746174 L122.81609 -62.355652 L122.66659 -62.752385 L122.02262 -62.821383 L121.55114 -63.183619 L121.3384 -63.430858 L121.40739 -63.752845 L121.55114 -64.046086 L122.48835 -64.080585 L122.8494 -64.228898 L122.9718 -64.537294 L123.09233 -64.823641 L122.80459 -65.0178 L122.5516 -65.270788 L122.62635 -65.627276 L123.12658 -66.167755 L123.41407 -66.386246 L123.55413 -66.258365 L123.63333 -66.630936 L123.76133 -67.3429 L123.75178 -67.631094 L123.7973 -67.864293 L123.97425 -69.235553 L123.70216 -69.201809 L119.48433 -69.121481 L119.47634 -61.403077 L119.52889 -60.44288 L119.54386 -60.235932 L122.62279 -60.222255 L123.36027 -60.755505 Z "  fill="#D4FFB9" fill-rule="evenodd" stroke="#6E6E6E" fill-opacity="1" stroke-opacity="1"  stroke-width="0.7" stroke-linecap="round" stroke-linejoin="round" stroke-miterlimit="10" />
</g>
</g>
<g clip-path="url(#cp_2)">
<g transform="matrix(4.1666667 0 0 -4.1666667 977.3353 826.07132)">
<path d="M-56.621688 132.88556 L-56.664571 132.65889 L-57.089901 131.83433 L-57.072547 131.35834 L-56.835672 131.03525 L-56.427917 130.83071 L-55.838199 130.63522 L-55.01782 130.03206 L-54.914283 129.84136 L-54.518437 129.13195 L-54.139723 127.95481 L-54.045426 127.10924 L-53.943279 126.83577 L-53.754224 126.60942 L-53.816661 125.76395 L-55.028315 125.6861 L-55.512574 125.61251 L-55.518908 124.50523 L-55.524403 123.7905 L-55.557818 121.83012 L-54.429738 121.87677 L-54.424332 122.0963 L-54.44481 122.40386 L-51.309452 122.40439 L-50.467169 122.39975 L-50.441342 122.98849 L-50.433756 125.40188 L-50.415298 125.66989 L-49.971003 131.97105 L-49.968817 132.48443 L-49.678356 133.05496 L-49.42554 133.30197 L-49.229386 133.41055 L-48.710484 133.35322 L-48.285376 133.03661 L-48.048596 132.70335 L-47.698143 132.51907 L-47.422941 132.38274 L-47.264289 132.32381 L-47.138636 132.04166 L-47.050714 131.75247 L-46.86414 131.66366 L-46.67088 131.59968 L-46.402543 131.52677 L-46.187824 131.49631 L-45.95277 131.44474 L-45.394562 131.44914 L-45.216622 131.11246 L-45.290245 129.35928 L-44.876261 126.11066 L-44.611772 125.16769 L-44.291696 124.26265 L-44.99261 123.84227 L-44.94187 123.6266 L-44.811963 123.39553 L-44.706775 123.18598 L-44.537325 122.84429 L-44.435307 122.64502 L-44.256294 122.47516 L-43.674437 121.79476 L-43.139146 121.55503 L-42.888705 121.28041 L-42.816445 121.02538 L-42.630963 120.86629 L-42.472521 120.79077 L-42.245141 120.66231 L-41.886569 120.55406 L-41.069341 119.84295 L-40.155658 119.34956 L-39.512659 119.07103 L-39.014843 119.08902 L-39.075018 118.12905 L-38.679882 118.10591 L-37.039012 118.19842 L-37.026464 117.99554 L-37.029387 117.81784 L-37.030449 116.01263 L-37.047904 115.32017 L-39.246711 115.27842 L-40.58115 115.30561 L-41.323051 115.31024 L-41.839753 115.3169 L-45.604721 115.37452 L-46.049326 115.3794 L-46.307849 115.38501 L-46.434621 114.86861 L-46.969694 114.90251 L-46.786954 115.1651 L-46.760902 115.55947 L-47.196365 115.84746 L-47.716723 116.00964 L-47.949232 116.05766 L-48.187549 116.10833 L-49.126637 116.20917 L-49.691503 116.38428 L-50.664015 116.98123 L-50.974871 117.29146 L-52.192234 118.11702 L-52.773242 118.64411 L-53.196067 119.1046 L-53.465363 119.59445 L-53.721402 120.10134 L-53.911914 120.72413 L-55.77734 120.74885 L-56.890468 120.76017 L-56.920158 121.81181 L-60.53834 121.9154 L-60.538984 123.91921 L-60.585151 124.95324 L-60.558712 125.37221 L-62.452716 125.39719 L-63.5686 125.40134 L-63.546538 122.26269 L-61.382137 122.18142 L-61.302103 119.61146 L-61.962951 119.5717 L-62.895623 119.69777 L-63.367522 119.89837 L-63.839654 119.89183 L-65.010061 120.36351 L-65.448713 120.91267 L-65.922653 120.80134 L-66.703998 121.16402 L-67.661557 121.322 L-68.440529 121.45962 L-68.446061 121.14259 L-69.576192 121.2576 L-70.801487 121.42899 L-70.642155 121.95656 L-70.407071 122.82328 L-71.114989 122.83824 L-72.481433 122.75291 L-72.676071 122.73907 L-75.412788 124.00918 L-76.187728 124.36943 L-78.593516 124.48756 L-79.884141 124.54953 L-79.885547 124.82257 L-79.872426 128.25649 L-79.873446 128.90293 L-78.66808 128.9924 L-78.637623 129.52991 L-78.626332 130.00029 L-78.629088 130.38589 L-78.62351 130.86406 L-78.96066 130.91865 L-79.58094 131.01025 L-79.788793 131.33109 L-80.803254 132.91697 L-80.588055 133.36006 L-80.286512 133.63026 L-79.915349 134.05523 L-79.215433 134.87204 L-78.931697 135.41111 L-79.600165 135.65448 L-80.177205 136.18523 L-80.227439 136.77756 L-80.536398 136.95635 L-80.458791 138.09691 L-79.823875 138.09474 L-80.545362 139.32161 L-80.525541 139.44882 L-80.789034 139.96088 L-80.684752 140.44239 L-80.671753 140.98309 L-80.742682 141.39804 L-81.635271 141.48369 L-81.995147 141.48757 L-82.498547 142.21399 L-82.61714 142.35741 L-82.289402 142.50755 L-81.820061 142.72614 L-81.203398 142.98301 L-80.898305 143.12909 L-79.892914 143.18659 L-79.969328 143.91494 L-79.721177 144.24236 L-79.560767 144.42598 L-79.121954 144.14772 L-78.684971 143.86598 L-77.483266 143.1875 L-76.666797 142.65853 L-75.378847 141.26133 L-74.286389 140.37011 L-73.613664 139.92163 L-73.119184 139.65714 L-72.383211 138.84642 L-72.112973 138.36919 L-71.549495 136.52351 L-71.072263 135.5748 L-70.618028 134.98832 L-69.376076 133.05064 L-68.818348 132.45841 L-68.467611 132.09043 L-68.116874 131.86619 L-66.788676 131.68794 L-65.63297 131.94668 L-64.598009 133.03339 L-64.408266 133.52787 L-64.247271 134.10285 L-64.017282 134.59733 L-63.793038 134.87907 L-63.212312 135.22406 L-62.1946 135.59204 L-61.010146 135.5633 L-60.325923 135.61504 L-59.85444 135.71279 L-59.210464 135.69554 L-59.06672 135.54605 L-58.876977 134.71233 L-58.52624 134.37884 L-57.560277 134.2811 L-57.347537 134.02811 L-57.019799 132.9414 L-56.621688 132.88556 Z "  fill="#C4CCFD" fill-rule="evenodd" stroke="#6E6E6E" fill-opacity="1" stroke-opacity="1"  stroke-width="0.7" stroke-linecap="round" stroke-linejoin="round" stroke-miterlimit="10" />
</g>
</g>
<g clip-path="url(#cp_2)">
<g transform="matrix(4.1666667 0 0 -4.1666667 977.3353 826.07132)">
<path d="M-95.086494 152.4131 L-95.151281 152.25293 L-95.332582 151.04394 L-95.060141 150.95839 L-95.141692 149.28912 L-94.06066 148.80832 L-94.076274 147.26957 L-94.920759 147.09768 L-95.159641 146.57711 L-96.889739 147.13573 L-99.030919 147.84845 L-101.54183 148.73441 L-103.74781 149.41157 L-103.94533 149.23493 L-106.12773 149.09018 L-106.209 146.79622 L-106.21858 145.51119 L-106.2392 144.32867 L-106.27691 142.4655 L-106.33493 140.05218 L-108.46354 140.092 L-110.88588 140.13237 L-110.85819 140.7492 L-110.83768 141.49532 L-110.8167 141.94379 L-110.78634 142.53596 L-118.38636 142.67475 L-118.58744 142.66899 L-119.34946 142.65156 L-119.6525 142.64519 L-120.02181 142.66951 L-120.7448 142.70508 L-122.54388 142.79581 L-122.8699 142.7458 L-123.96359 142.58139 L-123.99776 143.62877 L-124.8668 143.67236 L-126.17908 143.74114 L-128.85958 143.57879 L-130.23284 143.62719 L-130.19687 146.29481 L-130.87459 146.34475 L-131.28588 146.3454 L-131.225 150.45924 L-131.22201 150.9346 L-131.15671 151.17759 L-131.08654 151.34886 L-132.97822 151.74191 L-133.50556 151.81807 L-133.80954 151.84512 L-133.9061 152.20444 L-134.07261 153.38681 L-136.6717 153.52473 L-138.12691 153.5898 L-138.10601 155.77496 L-137.11493 155.79446 L-135.91453 155.8182 L-135.87363 156.51885 L-135.89596 157.16831 L-135.50141 156.99176 L-133.52561 156.49716 L-133.5136 157.11141 L-133.50564 157.51857 L-133.49448 158.08936 L-133.35603 158.1437 L-132.84215 157.37221 L-132.07168 156.60174 L-131.27246 156.13601 L-130.79523 155.84852 L-129.77177 155.13555 L-129.24854 154.69282 L-128.61032 154.20984 L-127.70185 153.42787 L-127.20162 153.12888 L-126.56339 152.89313 L-124.37273 152.80114 L-122.3488 153.18062 L-119.13468 153.92235 L-117.75473 154.42258 L-116.56452 154.68132 L-114.93159 155.1758 L-114.31636 155.30229 L-113.71838 155.33679 L-113.05716 155.37704 L-111.86695 155.49204 L-111.32647 155.65303 L-109.80853 155.86577 L-108.41134 155.68753 L-105.37545 155.1758 L-104.2255 155.1068 L-102.46606 154.91706 L-101.47135 154.67557 L-100.47089 154.29033 L-98.653959 153.77285 L-96.198804 152.77814 L-95.086494 152.4131 Z "  fill="#CCFFEF" fill-rule="evenodd" stroke="#6E6E6E" fill-opacity="1" stroke-opacity="1"  stroke-width="0.7" stroke-linecap="round" stroke-linejoin="round" stroke-miterlimit="10" />
</g>
</g>
<g clip-path="url(#cp_2)">
<g transform="matrix(4.1666667 0 0 -4.1666667 977.3353 826.07132)">
<path d="M191.3629 -140.19479 L191.80637 -140.5646 L192.21705 -141.00235 L192.74861 -141.59012 L193.12303 -142.17327 L193.10461 -142.76565 L187.95032 -142.78961 L187.75419 -142.8073 L187.70582 -142.1098 L187.60642 -140.31909 L190.75263 -140.12802 L191.3629 -140.19479 Z "  fill="#E6C2FE" fill-rule="evenodd" stroke="#6E6E6E" fill-opacity="1" stroke-opacity="1"  stroke-width="0.7" stroke-linecap="round" stroke-linejoin="round" stroke-miterlimit="10" />
</g>
</g>
</g>
<!-- Begin_Label-->
<clipPath id="cp_3">
<path d="M1923.9287 1617.6745 L1923.9287 34.468158 L30.74187 34.468158 L30.74187 1617.6745 Z " />
</clipPath>
<g clip-path="url(#cp_3)">
<g id="EmbdFile__1" transform="matrix(1 0 0 1 30.74187 34.468158)">
<g>
<g transform="scale(1,1)">
</g>
</g>
</g>
</g>
<!-- End_Label-->
<g transform="matrix(4.1666667 0 0 -4.1666667 0 1653.54)">
<path d="M7.3780489 388.57724 L461.74289 388.57724 L461.74289 8.6077237 L7.3780489 8.6077237 L7.3780489 388.57724 Z "  stroke="#000000" fill="none" stroke-opacity="1" stroke-width="1" stroke-linecap="round" stroke-linejoin="miter" stroke-miterlimit="10" />
</g>
</g>
</g>
</svg>
