<?xml version="1.0" encoding="utf-8" standalone="no"?>
<!DOCTYPE svg PUBLIC "-//W3C//DTD SVG 1.1//EN" "http://www.w3.org/Graphics/SVG/1.1/DTD/svg11.dtd">
<svg version="1.1" xmlns="http://www.w3.org/2000/svg" xmlns:xlink="http://www.w3.org/1999/xlink" width="468pt" height="397pt" viewBox="0 0 468 397" xml:space="preserve" enable-background="new 0 0 468 397">
<g transform="scale(0.24,0.24)">
<g>
	<rect x="0" y="0" width="1948.815" height="1653.54" fill="#FFFFFF" fill-opacity="0" />
</g>
<g id="Map_Frame">
<g id="rivers">
<clipPath id="cp_2">
<path d="M1923.9287 1617.6745 L1923.9287 34.468158 L30.74187 34.468158 L30.74187 1617.6745 Z " />
</clipPath>
<g clip-path="url(#cp_2)">
<g transform="matrix(4.1666667 0 0 -4.1666667 977.3353 826.07132)">
<path d="M-55.536355 130.49199 L-55.766345 131.43495 L-55.789345 131.86619 L-55.484607 132.61366 L-55.248865 133.36113 L-55.11087 134.43634 L-55.13387 134.86757 "  stroke="#73DFFF" fill="none" stroke-opacity="1" stroke-width="1" stroke-linecap="round" stroke-linejoin="round" stroke-miterlimit="10" />
</g>
</g>
<g clip-path="url(#cp_2)">
<g transform="matrix(4.1666667 0 0 -4.1666667 977.3353 826.07132)">
<path d="M-55.536355 130.49199 L-55.831034 130.6487 L-56.531067 131.02097 L-56.938395 131.17536 L-57.244039 131.29121 L-57.48553 131.48095 L-57.548778 131.83744 L-57.433782 132.19392 L-57.019798 132.9414 "  stroke="#73DFFF" fill="none" stroke-opacity="1" stroke-width="1" stroke-linecap="round" stroke-linejoin="round" stroke-miterlimit="10" />
</g>
</g>
<g clip-path="url(#cp_2)">
<g transform="matrix(4.1666667 0 0 -4.1666667 977.3353 826.07132)">
<path d="M-179.92711 112.50093 L-179.56487 112.52393 L-179.31188 112.44343 L-178.70815 112.25369 L-177.96068 111.9432 L-176.98897 111.9892 L-176.44274 112.40893 L-176.35649 112.90916 L-176.25875 113.21102 L-175.71252 114.11661 L-175.08004 114.85259 L-174.44757 115.6978 L-174.28657 116.30728 L-174.05658 116.94551 L-173.5046 117.39974 L-172.74563 117.62973 L-172.30865 117.83672 L-171.68192 118.39445 L-171.12994 118.80844 L-170.22723 119.07293 L-170.04323 119.21092 L-169.10602 120.62537 L-168.26655 121.21759 L-167.28909 121.47633 L-166.88086 121.86157 L-166.46687 122.60329 L-166.23688 123.10352 L-165.96089 124.13848 L-165.95514 124.39147 L-166.04714 124.8572 L-166.28863 125.22519 L-166.50137 125.44368 L-167.45008 126.22565 L-167.57658 126.73163 L-167.46158 127.05362 L-167.28334 127.15712 L-166.80036 127.64585 L-166.78886 128.07708 L-167.31209 128.73831 L-167.40408 129.16954 L-167.42708 129.67552 L-167.30634 130.3195 L-166.87511 131.49245 L-166.35762 132.19968 L-166.05289 132.69416 L-166.22826 132.89827 L-166.84636 132.68266 L-167.24022 132.69128 L-167.30059 133.26913 L-167.0016 133.68887 L-166.59337 134.00511 L-166.11039 134.25235 L-165.86889 134.37884 L-165.35716 134.72383 L-164.32508 135.63804 L-163.84497 136.16127 L-163.64948 136.58676 L-163.47699 137.76546 L-162.95951 138.25994 L-162.67202 138.24844 L-162.32128 138.0587 L-162.03954 137.65622 L-161.76355 137.36298 L-160.79184 137.33998 L-160.50435 137.40323 L-160.10186 137.71371 L-158.22744 140.6461 L-157.7617 141.82481 L-157.61221 142.14105 L-157.33622 143.03226 L-157.27872 143.81998 L-157.40522 144.54445 L-157.67546 145.12518 L-157.59496 145.41267 L-157.41672 145.44142 L-156.99123 145.21718 L-156.66924 145.17118 L-156.26676 145.44717 L-156.07127 146.0164 L-156.08852 146.70062 L-156.29551 146.99386 L-156.6175 147.1491 L-157.04873 147.1261 L-157.66396 146.99386 L-158.12969 147.04561 L-158.33668 147.2641 L-158.32518 147.77008 L-158.13544 148.05182 L-157.38797 149.14428 L-156.80149 149.59851 L-155.66878 150.28848 L-154.66257 150.25974 L-154.02435 149.955 L-153.59311 149.99812 L-153.44362 150.22524 L-153.38612 150.94396 L-152.90314 151.57644 L-152.81114 152.4044 L-152.66165 152.5769 L-152.19017 152.81839 L-151.61519 152.73214 L-151.2587 152.5424 L-150.94821 152.09966 L-150.70672 151.84667 L-150.0225 151.82368 L-147.95833 152.45615 L-147.38335 152.4389 L-146.77962 152.24341 L-146.30814 152.23191 L-145.35943 152.81839 L-144.92819 152.87589 L-144.42796 152.72064 L-143.72074 152.30666 L-142.66853 151.38094 L-141.99581 151.00146 L-141.64507 150.70822 L-141.16209 149.93775 L-140.7366 149.67326 L-140.08688 149.69626 L-139.22441 149.74225 L-138.46544 149.8285 L-138.24695 149.932 L-137.95371 150.28273 L-137.71222 151.13945 L-137.57997 151.44419 L-137.44773 151.74318 L-136.9245 152.4504 L-136.69451 153.05413 L-136.70578 153.52391 L-136.71176 153.77285 L-136.798 154.42258 L-136.798 155.80073 L-136.798 155.93477 L-137.03374 156.44075 L-138.22395 157.6597 L-138.94267 158.67358 L-139.65564 159.1719 L-140.7596 159.66638 L-141.65082 159.98261 L-143.4735 160.2816 L-144.00823 160.43685 "  stroke="#73DFFF" fill="none" stroke-opacity="1" stroke-width="1" stroke-linecap="round" stroke-linejoin="round" stroke-miterlimit="10" />
</g>
</g>
<g clip-path="url(#cp_2)">
<g transform="matrix(4.1666667 0 0 -4.1666667 977.3353 826.07132)">
<path d="M-59.147217 104.09475 L-57.22679 104.69272 L-56.864554 104.93422 L-56.525316 105.35395 L-56.513817 105.78518 L-57.106044 106.6649 L-57.088795 107.27438 L-56.795557 107.48137 L-56.255077 107.53887 L-55.933089 107.45837 L-55.685849 107.34337 L-55.363861 107.30312 L-54.714136 107.39512 L-54.19953 107.60499 L-53.725174 108.0161 L-53.017951 108.89581 L-52.615467 109.13156 L-52.25898 109.05106 L-51.948491 108.72332 L-51.597755 108.24609 L-51.252768 107.8781 L-50.861783 107.54462 L-50.465048 107.60211 L-50.028065 107.8781 L-49.769325 108.23459 L-49.683078 108.62557 L-49.780824 109.09706 L-49.757825 109.85028 L-49.217346 111.34522 L-48.803361 112.12719 L-48.067389 112.64467 L-47.699404 113.10465 L-47.607408 113.89237 L-47.486662 114.31786 L-46.974931 114.70309 L-46.853896 114.89517 L-46.71179 115.1461 L-46.73344 115.51956 L-46.940433 115.95654 L-47.429164 116.43953 L-48.050141 116.76726 L-48.705616 117.118 L-49.769325 117.54348 L-51.707001 119.03268 L-52.195732 119.55016 L-52.925954 120.68286 L-53.190444 121.40734 L-53.452929 122.38197 L-53.437684 122.88503 L-53.023701 123.7015 L-52.931704 124.42022 L-52.989202 124.9262 L-53.397436 125.75992 L-53.770165 126.39356 L-53.914916 126.63964 L-53.966665 126.82938 L-54.065177 127.16432 L-54.139158 127.6516 L-54.11266 127.95243 L-54.041412 128.76131 L-54.380648 129.45703 L-55.076372 130.2275 L-55.536355 130.49199 "  stroke="#73DFFF" fill="none" stroke-opacity="1" stroke-width="1" stroke-linecap="round" stroke-linejoin="round" stroke-miterlimit="10" />
</g>
</g>
<g clip-path="url(#cp_2)">
<g transform="matrix(4.1666667 0 0 -4.1666667 977.3353 826.07132)">
<path d="M-151.49632 56.077849 L-151.3047 56.204825 L-150.54573 56.325571 L-149.21753 56.360069 L-146.20464 55.997833 L-145.48592 56.084079 L-144.76145 56.245074 L-142.29479 57.257034 L-141.53007 57.630771 L-141.12759 57.872261 L-140.86885 58.010256 L-139.67864 58.228747 L-138.85067 58.211499 L-137.92496 57.89526 L-136.86125 57.36628 L-136.22303 57.170788 L-134.90058 56.883299 L-134.00361 56.825802 L-133.10089 56.940797 L-130.87573 56.8488 L-130.47324 57.055793 L-129.60503 57.280034 L-129.03005 57.268535 L-128.24808 57.032793 L-127.88584 56.986795 L-127.42011 57.078792 L-126.94863 57.245535 L-125.41919 57.998757 L-125.2007 58.062004 L-124.12549 57.998757 L-122.90078 57.929759 L-122.43505 58.027506 L-122.03257 58.194249 L-118.5597 60.367666 L-118.12847 60.54016 L-117.61674 60.741402 L-116.93251 60.902396 L-115.63306 61.011642 L-115.05808 61.103639 L-114.14962 61.402627 L-113.50564 61.419876 L-112.29244 61.02889 L-111.53922 60.977143 L-110.671 61.201384 L-110.30876 61.264632 L-108.95757 62.023603 L-106.8589 62.650329 L-106.13442 62.736576 L-105.62844 62.86882 L-104.90397 63.139061 L-104.05875 63.869283 L-103.32853 64.208519 L-102.43156 64.260268 L-102.13833 64.427011 L-100.89062 65.404474 L-100.02241 65.703462 L-99.470428 66.013951 L-99.067943 66.358937 L-98.584962 67.066161 L-97.774243 67.836631 L-97.228014 68.003375 L-96.53804 68.308113 L-96.239051 68.624351 L-95.830817 69.256827 L-95.388084 69.607564 L-95.100595 69.636313 L-94.456619 69.509817 L-94.025385 69.607564 L-93.180168 70.194041 L-92.668438 70.50453 L-91.27699 71.51074 L-90.457647 72.666446 L-90.006289 73.419668 L-89.563556 73.839402 L-88.459598 74.742118 L-88.16061 75.167601 L-87.850121 75.98982 L-87.585632 76.484302 L-87.073901 76.794789 L-86.498923 76.886786 L-86.245933 76.984532 L-86.130937 77.237522 L-86.05044 78.922208 L-85.7917 79.169449 L-85.245471 79.514435 L-84.411752 79.778925 L-83.974769 79.980168 L-83.457289 80.509148 L-83.014556 80.819636 L-82.255585 81.089876 L-81.996845 81.331366 L-81.772603 81.647604 L-81.663357 82.975804 L-81.456366 84.051012 L-81.450616 85.7012 L-81.617359 86.21293 L-81.594361 86.931653 L-81.444865 87.282389 L-80.714643 87.771121 L-80.450154 88.087358 L-80.28341 89.018823 L-80.087918 89.62255 L-79.754431 89.938787 L-79.173703 90.243526 L-76.580551 93.158664 L-75.666336 93.641647 L-75.660587 93.998132 L-75.850329 94.866349 L-75.775582 95.079091 L-74.821119 95.700067 L-74.286389 95.723067 L-73.855155 95.533324 L-73.498669 95.487325 L-73.067435 95.585072 L-72.883442 95.723067 L-72.584454 96.18305 L-72.314215 96.896022 L-72.273966 98.25872 L-72.365962 98.908445 L-72.291215 99.121187 L-71.957728 99.437425 L-71.739236 99.466174 L-70.784773 98.971693 L-70.388038 98.925694 L-69.514071 99.33393 L-69.048339 99.397176 L-68.576857 99.598419 L-68.352615 99.770913 L-67.898383 100.62188 L-67.340655 101.47285 L-66.673679 102.09957 L-65.87446 102.51356 L-65.581221 102.82405 L-65.121238 103.78426 L-65.126989 105.00896 L-64.828 105.28495 L-64.281771 105.56094 L-63.660794 106.04967 L-63.292809 106.29116 L-62.752329 106.49241 L-61.889862 106.46941 L-61.711619 106.31991 L-61.470128 105.91743 L-61.337883 105.44595 L-60.998646 104.89972 L-60.607661 104.56623 L-59.900438 104.18674 L-59.147217 104.09475 "  stroke="#73DFFF" fill="none" stroke-opacity="1" stroke-width="1" stroke-linecap="round" stroke-linejoin="round" stroke-miterlimit="10" />
</g>
</g>
<g clip-path="url(#cp_2)">
<g transform="matrix(4.1666667 0 0 -4.1666667 977.3353 826.07132)">
<path d="M-68.375615 16.261099 L-68.168622 17.261561 L-67.72014 17.934285 L-67.093414 18.526513 L-66.478187 18.837001 L-64.695755 19.544224 L-64.218523 19.854712 L-64.000031 20.027206 L-63.557298 20.556186 L-62.510838 21.964881 L-62.091105 22.965343 L-61.889862 23.822061 L-62.004857 24.759276 L-61.981859 25.765486 L-61.746117 26.403712 L-61.746117 27.737662 L-62.004857 28.81862 L-62.344095 29.617839 L-63.436553 31.768258 L-64.212773 33.659936 L-64.454264 34.027921 L-64.695755 34.499403 L-65.661718 36.069093 L-65.793963 36.471578 L-65.949207 37.339795 L-66.1447 37.98952 L-66.420689 38.570248 L-66.552934 39.007231 L-66.627681 40.122689 L-66.840423 41.67513 L-66.949669 42.97458 L-67.219908 44.992753 L-67.168161 45.567731 L-67.053165 45.924217 L-66.823174 46.349701 L-66.604682 46.556693 L-64.988994 46.550943 L-64.120777 46.746436 L-63.862037 46.953428 L-63.338807 47.764147 L-62.625835 48.862355 L-62.2061 49.713322 L-61.964609 52.041984 L-61.907112 52.248976 L-61.809365 52.576713 L-61.383881 53.571426 L-61.309134 55.00887 L-61.090642 55.325108 L-60.9009 55.647096 L-60.12468 56.342819 L-58.332148 57.608559 L-57.566027 57.964258 L-56.761316 58.124488 L-56.266576 58.222998 L-54.024162 58.843974 L-53.621677 59.050966 L-53.437684 59.298207 L-53.242192 59.72369 L-53.196194 60.114676 L-53.276691 61.195634 L-53.466434 62.282343 L-53.449185 62.960817 L-53.224942 63.282805 L-52.678713 63.553045 L-52.057737 63.932531 L-51.839246 64.036026 L-51.821997 64.680001 L-51.735749 65.036488 L-51.442511 65.461972 L-51.252768 65.818459 L-51.275768 66.215192 L-52.011739 66.951165 L-52.109486 67.204156 L-52.143985 67.457146 L-52.126735 68.106871 L-52.011739 68.354111 L-51.321766 68.65885 L-51.20677 68.871592 L-51.222891 69.125505 L-51.229769 69.233828 L-51.528758 70.171043 L-51.908243 70.75752 L-52.293479 71.165754 L-52.465971 71.458993 L-52.483221 72.281212 L-52.684463 72.792942 L-52.994952 73.126429 L-53.633178 73.465666 L-55.237366 74.121141 L-56.266576 74.615622 L-56.611564 74.983608 L-56.743808 75.489589 L-56.70356 75.777078 L-55.92734 76.582047 L-55.501856 77.542261 L-55.346612 78.111488 L-55.254615 78.755464 L-55.271865 79.474187 L-55.363861 80.123912 L-55.346612 80.664392 L-55.047624 81.124373 L-54.783133 81.653354 L-54.696887 82.228332 L-54.754385 82.768811 L-55.271865 83.683026 L-55.39836 84.332752 L-55.478857 85.235467 L-55.674349 85.752947 L-56.16308 86.511918 L-56.508068 87.201892 L-56.600064 87.742371 L-56.485068 87.886116 L-55.685849 88.259851 L-55.461607 88.57609 L-55.381111 89.007323 L-55.519106 93.216163 L-56.226328 94.992845 L-56.634562 95.797814 L-57.221041 96.815525 L-57.422283 97.471 L-57.640774 98.626706 L-57.945513 99.391427 L-59.141468 101.61659 L-59.405957 102.41006 L-59.359959 102.98504 L-59.342709 103.59452 L-59.147217 104.09475 "  stroke="#73DFFF" fill="none" stroke-opacity="1" stroke-width="1" stroke-linecap="round" stroke-linejoin="round" stroke-miterlimit="10" />
</g>
</g>
<g clip-path="url(#cp_2)">
<g transform="matrix(4.1666667 0 0 -4.1666667 977.3353 826.07132)">
<path d="M117.06056 -7.6694878 L117.02606 -7.1980058 L117.1698 -6.5885288 L117.13531 -6.1572952 L116.45108 -5.4040737 L115.98535 -5.110835 L114.40991 -4.6393529 L113.93843 -4.3173651 L113.61738 -3.5521057 L113.62219 -3.1386606 L113.62219 -2.8051725 L113.87518 -1.7644629 L113.84733 -1.6283289 L113.77168 -1.2584822 L113.40945 -1.0802389 L112.8318 -1.033885 L112.42866 -0.96712868 L112.01225 -0.64325563 L111.51202 0.25371042 L111.29087 0.82430989 L110.7588 2.1971356 L110.44387 2.8725092 L110.02283 3.7754509 L109.40185 4.6810414 L108.90162 5.1870221 L108.53938 5.3652654 "  stroke="#73DFFF" fill="none" stroke-opacity="1" stroke-width="1" stroke-linecap="round" stroke-linejoin="round" stroke-miterlimit="10" />
</g>
</g>
<g clip-path="url(#cp_2)">
<g transform="matrix(4.1666667 0 0 -4.1666667 977.3353 826.07132)">
<path d="M120.06194 -13.89075 L119.77445 -13.499764 L119.56171 -12.959285 L119.41797 -12.165816 L119.35472 -9.4691685 L119.06723 -9.0379348 L118.78262 -8.8021943 L118.20476 -8.4974553 "  stroke="#73DFFF" fill="none" stroke-opacity="1" stroke-width="1" stroke-linecap="round" stroke-linejoin="round" stroke-miterlimit="10" />
</g>
</g>
<g clip-path="url(#cp_2)">
<g transform="matrix(4.1666667 0 0 -4.1666667 977.3353 826.07132)">
<path d="M-15.655877 -14.971709 L-14.689914 -15.029206 L-14.155184 -14.925711 L-13.890694 -14.873962 L-13.20072 -14.603723 L-12.436 -14.120741 L-11.838022 -13.310022 "  stroke="#73DFFF" fill="none" stroke-opacity="1" stroke-width="1" stroke-linecap="round" stroke-linejoin="round" stroke-miterlimit="10" />
</g>
</g>
<g clip-path="url(#cp_2)">
<g transform="matrix(4.1666667 0 0 -4.1666667 977.3353 826.07132)">
<path d="M-61.843864 -20.543245 L-60.946898 -20.675491 L-60.297173 -20.623743 L-57.244039 -20.70424 L-56.502318 -21.049226 L-56.145831 -21.233219 L-55.519106 -21.969192 L-55.093622 -22.342927 L-54.811882 -22.423424 L-54.018412 -22.440674 L-53.661926 -22.377426 L-53.224942 -22.141685 L-52.373975 -21.371214 L-51.752999 -20.991729 L-49.441587 -20.548996 L-48.498623 -20.284506 L-47.00943 -19.680779 L-46.325206 -19.623281 L-43.973546 -20.296006 L-42.720094 -20.405252 L-41.23665 -20.014266 L-40.397183 -19.640531 L-39.891202 -19.542784 L-39.247226 -19.669279 L-37.896028 -20.135011 L-37.355549 -20.152261 L-36.165344 -19.893521 L-35.360375 -19.519785 L-34.589904 -18.927558 L-33.928679 -18.300832 L-32.629229 -16.748391 "  stroke="#73DFFF" fill="none" stroke-opacity="1" stroke-width="1" stroke-linecap="round" stroke-linejoin="round" stroke-miterlimit="10" />
</g>
</g>
<g clip-path="url(#cp_2)">
<g transform="matrix(4.1666667 0 0 -4.1666667 977.3353 826.07132)">
<path d="M7.1822517 -16.978382 L7.5042396 -16.984131 L8.4357044 -17.260121 L9.0451803 -17.311869 L10.37913 -17.099128 L11.350843 -17.087628 L14.674216 -17.748852 L15.852921 -18.105339 L19.262541 -19.485286 L20.188256 -19.836023 L21.38996 -20.623743 L22.235177 -21.365464 L22.792906 -22.026689 L22.844654 -22.710913 L22.729659 -22.923655 L22.44217 -22.986903 L21.220341 -22.992653 L20.958726 -23.377888 L20.837981 -23.734374 L21.085221 -23.883869 L21.550953 -24.079361 L22.798656 -24.401349 L23.402383 -24.596841 L24.494841 -25.522556 L24.851327 -25.637552 L25.558551 -25.718048 L26.070281 -25.781296 L27.070742 -26.022787 L27.743467 -26.362024 L28.416191 -26.632263 L29.134914 -26.649513 L30.54361 -26.546017 "  stroke="#73DFFF" fill="none" stroke-opacity="1" stroke-width="1" stroke-linecap="round" stroke-linejoin="round" stroke-miterlimit="10" />
</g>
</g>
<g clip-path="url(#cp_2)">
<g transform="matrix(4.1666667 0 0 -4.1666667 977.3353 826.07132)">
<path d="M-66.904687 -21.009209 L-65.259233 -20.635242 L-63.959783 -20.560495 "  stroke="#73DFFF" fill="none" stroke-opacity="1" stroke-width="1" stroke-linecap="round" stroke-linejoin="round" stroke-miterlimit="10" />
</g>
</g>
<g clip-path="url(#cp_2)">
<g transform="matrix(4.1666667 0 0 -4.1666667 977.3353 826.07132)">
<path d="M30.54361 -26.546017 L31.434827 -26.74726 L32.711278 -27.391234 L33.372502 -27.626976 L34.240719 -27.937463 L35.52292 -28.328449 L36.483134 -28.82293 L36.874119 -29.012673 L37.834332 -29.36341 L38.553055 -29.380659 L39.059035 -29.248413 L39.277527 -29.075921 L39.605264 -28.943675 L40.088246 -28.449194 L40.346986 -28.063959 L40.755221 -27.569478 L41.157705 -27.327988 L42.163916 -27.425733 L42.411157 -27.540729 L43.164379 -27.598227 L43.486366 -27.644225 L44.136092 -27.442983 L45.521789 -26.799007 L47.06848 -26.620764 L47.718205 -26.638013 L48.143688 -26.827756 L48.500175 -26.983 L48.781914 -27.207241 L49.098152 -27.465981 L49.66163 -27.730472 L50.311356 -27.747721 L50.817336 -27.621226 L51.50731 -27.24174 L51.852297 -26.534518 L52.076539 -26.21253 L52.582519 -26.011287 L53.0885 -26.028537 L53.686477 -26.47127 L54.359202 -26.850755 L54.646691 -26.856506 L55.405662 -26.661012 L55.802396 -26.638013 L56.377374 -26.72426 L57.044349 -27.138244 L57.711323 -27.908715 L58.677287 -29.300162 L58.815282 -29.484155 L59.970987 -30.703109 L60.931201 -31.088343 L61.517678 -31.283837 L62.719382 -31.220589 L63.104618 -31.220589 "  stroke="#73DFFF" fill="none" stroke-opacity="1" stroke-width="1" stroke-linecap="round" stroke-linejoin="round" stroke-miterlimit="10" />
</g>
</g>
<g clip-path="url(#cp_2)">
<g transform="matrix(4.1666667 0 0 -4.1666667 977.3353 826.07132)">
<path d="M75.713886 -32.583286 L75.961127 -33.089267 L76.317613 -33.664245 L76.6741 -34.704956 L76.996088 -35.320182 L77.46182 -35.785915 L77.893054 -36.038905 L78.577277 -36.038905 L79.00851 -35.935409 L79.330498 -35.757165 L80.882939 -34.860199 L81.854652 -33.963233 L82.395132 -33.681495 L83.361094 -33.715994 L83.72333 -33.646996 L84.223562 -33.29051 L85.017031 -33.215763 L85.845 -32.968522 L86.201487 -32.790278 L86.747716 -31.715069 L87.069703 -31.174591 L88.254158 -30.852603 L88.650892 -30.852603 L89.007379 -30.996347 L89.404114 -31.071094 L89.944593 -30.892851 L90.663316 -30.892851 L91.163546 -31.289586 L91.738525 -31.508078 L92.026014 -31.692071 L92.491746 -31.835815 L93.066724 -32.589037 L93.463459 -32.842027 L93.641702 -32.77303 L93.819946 -32.410793 L94.147683 -32.088806 L95.406884 -31.122842 L95.803619 -31.053845 L95.987612 -31.088343 L96.338349 -31.16309 L97.275564 -31.16309 L98.138031 -31.237838 L98.569265 -31.16884 L98.822255 -30.772105 L99.97221 -29.662398 L100.43794 -29.627899 L100.94392 -29.696897 L101.47865 -29.915388 L101.98463 -30.312123 L102.31525 -30.751981 L102.80685 -31.249338 L103.41633 -31.680571 L103.91656 -32.255549 L104.74453 -32.370545 L105.06652 -32.658033 L105.4575 -33.342257 L105.74499 -33.664245 L106.25097 -33.738992 L106.60746 -33.560749 L107.47567 -32.916774 L108.05065 -32.916774 L109.19486 -33.348007 L110.52306 -33.641247 L110.77605 -33.566499 L110.99454 -33.353757 L111.02904 -32.778779 L111.17278 -32.456791 L111.35678 -32.278548 L111.67876 -32.100305 L112.55561 -32.382044 L113.3692 -32.387794 L113.51294 -32.387794 L113.94418 -32.031307 L114.08792 -31.674821 L113.98443 -30.950348 L113.94993 -30.197128 L114.16267 -29.662398 L114.66865 -29.047172 L115.42762 -28.403196 L115.85885 -27.971962 L116.14634 -27.471731 L116.14634 -26.609265 L115.82436 -26.103284 L115.78986 -25.890542 L116.07735 -25.240817 L116.51433 -24.993576 L117.08931 -24.993576 L117.87703 -25.499557 L119.73996 -26.367774 L120.64267 -26.44827 L120.78642 -26.367774 L121.07391 -26.298776 L121.53964 -25.758297 L122.18936 -24.752086 L122.5516 -23.929867 L122.69534 -23.211144 L122.59185 -22.239431 L122.30436 -21.589706 L122.05712 -20.905482 L122.05712 -20.18676 L122.34461 -19.146049 L122.45385 -18.392828 L122.4251 -17.708604 L121.9565 -17.116377 "  stroke="#73DFFF" fill="none" stroke-opacity="1" stroke-width="1" stroke-linecap="round" stroke-linejoin="round" stroke-miterlimit="10" />
</g>
</g>
<g clip-path="url(#cp_2)">
<g transform="matrix(4.1666667 0 0 -4.1666667 977.3353 826.07132)">
<path d="M9.5166623 -37.384354 L11.442839 -36.68288 L12.357055 -36.130901 L12.903284 -35.860662 L13.771501 -35.63067 L15.375689 -34.773953 L15.916169 -34.538212 L16.427899 -34.405967 L16.859133 -34.198975 L17.70435 -33.612497 L18.802558 -32.922524 L19.308539 -32.686782 L20.3205 -32.49704 L21.326712 -32.520039 L23.252888 -33.077768 L23.862365 -33.054768 L24.770831 -32.75578 L25.5643 -32.560288 L27.007496 -32.525789 L27.582473 -32.324546 L28.094204 -32.054307 L28.577185 -31.600074 L28.98542 -30.92735 L29.180913 -30.501866 L29.416653 -29.6049 L29.727142 -28.863179 L30.28487 -28.086958 L30.486113 -27.299238 L30.54361 -26.546017 "  stroke="#73DFFF" fill="none" stroke-opacity="1" stroke-width="1" stroke-linecap="round" stroke-linejoin="round" stroke-miterlimit="10" />
</g>
</g>
<g clip-path="url(#cp_2)">
<g transform="matrix(4.1666667 0 0 -4.1666667 977.3353 826.07132)">
<path d="M-6.4389789 -76.137874 L-6.5194756 -75.810137 L-6.4058722 -75.163774 L-6.3527315 -74.861423 L-6.2722348 -73.142239 L-5.9847457 -71.819789 L-5.9559966 -70.813577 L-6.0824923 -70.014358 L-6.3872303 -69.358883 L-6.513726 -68.749406 L-6.3124832 -68.030684 L-6.0479936 -67.357959 L-5.5190133 -66.472493 L-4.4783027 -65.063797 L-4.0528197 -64.103583 L-3.8975749 -63.494107 L-3.926324 -63.275616 L-3.9435739 -62.666139 L-4.1563159 -61.148196 L-4.6335476 -60.205232 L-4.5473002 -59.630254 L-4.5702997 -59.124273 L-4.9210367 -58.721789 L-5.2315242 -58.42855 L-5.3695192 -58.060564 L-5.3810184 -57.272844 L-5.5880108 -56.761114 L-6.3124832 -55.737653 L-6.5539743 -55.225923 L-7.1577006 -53.667732 L-7.2841963 -53.173251 L-7.5486859 -52.14404 L-7.2554472 -52.046294 L-7.1002034 -51.436817 L-7.0484548 -50.936586 L-6.9277097 -50.505353 L-6.5654736 -50.229363 L-5.8812495 -50.246612 L-5.3752688 -50.189115 L-5.1912759 -50.010872 L-4.8922876 -49.481891 L-4.8060402 -48.947162 L-4.6910448 -48.73442 L-4.2540615 -48.458431 L-3.1673529 -48.124943 L-2.6901213 -47.779956 L-2.0978942 -47.112982 L-1.994398 -45.963026 L-1.8449039 -45.750284 L-1.0859328 -45.629538 L0.075522896 -45.227054 "  stroke="#73DFFF" fill="none" stroke-opacity="1" stroke-width="1" stroke-linecap="round" stroke-linejoin="round" stroke-miterlimit="10" />
</g>
</g>
<g clip-path="url(#cp_2)">
<g transform="matrix(4.1666667 0 0 -4.1666667 977.3353 826.07132)">
<path d="M140.34003 -169.67038 L140.64041 -168.4736 L140.07118 -167.2489 L140.73815 -163.87378 L140.7439 -162.29259 L140.9624 -161.64861 L142.26185 -160.28591 L143.48655 -159.50394 L144.06728 -158.71622 L144.36052 -157.64101 L144.79175 -157.20978 L147.17791 -154.27739 L147.3964 -153.62767 L146.97092 -153.12744 L146.90192 -152.6962 L147.69539 -151.90848 L148.55786 -151.33925 L149.49507 -151.12651 L151.07626 -151.35075 L152.22622 -151.3565 L152.42204 -151.30167 L153.23243 -151.07476 L154.66987 -150.86202 L156.90654 -149.22333 L157.77475 -147.93538 L158.78672 -146.92917 L160.5174 -145.57222 L161.23612 -145.29049 L162.31708 -145.58372 L162.74831 -145.43998 L163.47279 -144.43952 L163.76603 -143.36431 L163.69703 -141.85212 L163.41529 -140.70216 L163.41529 -140.43192 L163.42104 -140.05818 L163.92702 -139.48321 L164.71474 -139.41421 L165.14597 -139.6327 L165.57721 -139.70745 L166.30168 -139.28196 L167.52638 -137.91927 L168.31985 -137.27529 L169.53881 -137.78702 L170.18853 -137.93077 L171.12 -137.50528 L171.70072 -137.43628 L172.26995 -137.87327 L172.40795 -139.16697 L172.62069 -139.88569 L173.33366 -140.61016 L176.05331 -142.84683 L176.39829 -143.39306 L177.05377 -144.43377 L178.77295 -145.08924 L179.99191 -146.3197 L180.1989 -147.25691 L181.13036 -148.26312 L181.55585 -149.13134 L182.34357 -149.92481 L182.48156 -151.14376 L183.0311 -152.00847 M193.56589 -147.65046 L193.56714 -147.4639 L193.71663 -146.1012 L194.00987 -145.66997 L195.08508 -145.74472 L194.94709 -144.81325 L195.45307 -144.38202 L195.8843 -144.24403 "  stroke="#73DFFF" fill="none" stroke-opacity="1" stroke-width="1" stroke-linecap="round" stroke-linejoin="round" stroke-miterlimit="10" />
</g>
</g>
</g>
<!-- Begin_Label-->
<clipPath id="cp_3">
<path d="M1923.9287 1617.6745 L1923.9287 34.468158 L30.74187 34.468158 L30.74187 1617.6745 Z " />
</clipPath>
<g clip-path="url(#cp_3)">
<g id="EmbdFile__1" transform="matrix(1 0 0 1 30.74187 34.468158)">
<g>
<g transform="scale(1,1)">
</g>
</g>
</g>
</g>
<!-- End_Label-->
<g transform="matrix(4.1666667 0 0 -4.1666667 0 1653.54)">
<path d="M7.3780489 388.57724 L461.74289 388.57724 L461.74289 8.6077237 L7.3780489 8.6077237 L7.3780489 388.57724 Z "  stroke="#000000" fill="none" stroke-opacity="1" stroke-width="1" stroke-linecap="round" stroke-linejoin="miter" stroke-miterlimit="10" />
</g>
</g>
</g>
</svg>
